M48
; DRILL file KiCad 10.0.5 date 2026-08-27T19:56:03
; FORMAT={-:-/ absolute / metric / decimal}
; #@! TF.CreationDate,2026-08-27T19:56:03+05:30
; #@! TF.GenerationSoftware,Kicad,Pcbnew,10.0.5
; #@! TF.FileFunction,Plated,1,2,PTH
FMAT,2
METRIC
; #@! TA.AperFunction,Plated,PTH,ViaDrill
T1C0.200
; #@! TA.AperFunction,Plated,PTH,ViaDrill
T2C0.300
%
G90
G05
T1
X144.889Y-104.668
X144.889Y-105.418
X145.297Y-104.289
X145.297Y-105.039
X145.297Y-105.789
X150.197Y-103.463
X150.2Y-99.717
X150.204Y-102.721
X150.204Y-104.221
X150.204Y-104.971
X150.204Y-105.721
X150.207Y-98.225
X150.207Y-98.975
X150.207Y-100.475
X150.207Y-101.225
X150.207Y-101.975
X150.209Y-96.9
T2
X138.205Y-97.453
X138.205Y-105.073
X144.18Y-99.32
X144.395Y-101.903
X146.987Y-98.43
M30
