%TF.GenerationSoftware,KiCad,Pcbnew,10.0.5*%
%TF.CreationDate,2026-08-27T19:56:03+05:30*%
%TF.ProjectId,OpenDongle-CH570,4f70656e-446f-46e6-976c-652d43483537,rev?*%
%TF.SameCoordinates,Original*%
%TF.FileFunction,Legend,Top*%
%TF.FilePolarity,Positive*%
%FSLAX46Y46*%
G04 Gerber Fmt 4.6, Leading zero omitted, Abs format (unit mm)*
G04 Created by KiCad (PCBNEW 10.0.5) date 2026-08-27 19:56:03*
%MOMM*%
%LPD*%
G01*
G04 APERTURE LIST*
%ADD10C,0.120000*%
G04 APERTURE END LIST*
%TO.C,C4*%
D10*
X140701773Y-98064192D02*
X140701773Y-98345352D01*
X141721773Y-98064192D02*
X141721773Y-98345352D01*
%TO.C,R1*%
X139157500Y-98492030D02*
X139157500Y-98017514D01*
X140202500Y-98492030D02*
X140202500Y-98017514D01*
%TO.C,C3*%
X142241773Y-98064192D02*
X142241773Y-98345352D01*
X143261773Y-98064192D02*
X143261773Y-98345352D01*
%TO.C,Y1*%
X147983106Y-104100364D02*
X149694305Y-102389165D01*
X149694305Y-102389165D02*
X147700264Y-100395124D01*
%TO.C,C1*%
X140701773Y-101094413D02*
X140701773Y-101375573D01*
X141721773Y-101094413D02*
X141721773Y-101375573D01*
%TO.C,U1*%
X145377500Y-96820000D02*
X148597500Y-96820000D01*
X145377500Y-97045000D02*
X145377500Y-96820000D01*
X145377500Y-100040000D02*
X145377500Y-99815000D01*
X148597500Y-96820000D02*
X148597500Y-97045000D01*
X148597500Y-99815000D02*
X148597500Y-100040000D01*
X148597500Y-100040000D02*
X145377500Y-100040000D01*
X144847500Y-97430000D02*
X144517500Y-97670000D01*
X144517500Y-97190000D01*
X144847500Y-97430000D01*
G36*
X144847500Y-97430000D02*
G01*
X144517500Y-97670000D01*
X144517500Y-97190000D01*
X144847500Y-97430000D01*
G37*
%TO.C,C2*%
X142241773Y-101094413D02*
X142241773Y-101375573D01*
X143261773Y-101094413D02*
X143261773Y-101375573D01*
%TD*%
M02*
