%TF.GenerationSoftware,KiCad,Pcbnew,10.0.5*%
%TF.CreationDate,2026-08-27T19:56:03+05:30*%
%TF.ProjectId,OpenDongle-CH570,4f70656e-446f-46e6-976c-652d43483537,rev?*%
%TF.SameCoordinates,Original*%
%TF.FileFunction,Legend,Bot*%
%TF.FilePolarity,Positive*%
%FSLAX46Y46*%
G04 Gerber Fmt 4.6, Leading zero omitted, Abs format (unit mm)*
G04 Created by KiCad (PCBNEW 10.0.5) date 2026-08-27 19:56:03*
%MOMM*%
%LPD*%
G01*
G04 APERTURE LIST*
%ADD10C,0.000000*%
%ADD11C,0.129645*%
%ADD12C,0.150000*%
G04 APERTURE END LIST*
D10*
G36*
X147426525Y-98935015D02*
G01*
X147019067Y-98935015D01*
X147019067Y-97638557D01*
X147426525Y-97638557D01*
X147426525Y-98935015D01*
G37*
G36*
X148019192Y-98749807D02*
G01*
X147611733Y-98749807D01*
X147611733Y-97638557D01*
X148019192Y-97638557D01*
X148019192Y-98749807D01*
G37*
G36*
X148797067Y-98046015D02*
G01*
X147019067Y-98046015D01*
X147019067Y-97638557D01*
X148797067Y-97638557D01*
X148797067Y-98046015D01*
G37*
G36*
X148797067Y-98935015D02*
G01*
X148389608Y-98935015D01*
X148389608Y-97638557D01*
X148797067Y-97638557D01*
X148797067Y-98935015D01*
G37*
G36*
X148797067Y-99601765D02*
G01*
X147833983Y-99601765D01*
X148426650Y-99842536D01*
X148426650Y-100101828D01*
X147833983Y-100342598D01*
X148797067Y-100342598D01*
X148797067Y-100750057D01*
X147019067Y-100750057D01*
X147019067Y-100305557D01*
X147982150Y-99972182D01*
X147019067Y-99638807D01*
X147019067Y-99194307D01*
X148797067Y-99194307D01*
X148797067Y-99601765D01*
G37*
D11*
X146491910Y-100851303D02*
X146493948Y-100878109D01*
X146497305Y-100904525D01*
X146501947Y-100930519D01*
X146507841Y-100956056D01*
X146514954Y-100981105D01*
X146523252Y-101005630D01*
X146532703Y-101029601D01*
X146543274Y-101052982D01*
X146554931Y-101075742D01*
X146567641Y-101097846D01*
X146581370Y-101119263D01*
X146596087Y-101139957D01*
X146611757Y-101159898D01*
X146628347Y-101179050D01*
X146645825Y-101197382D01*
X146664156Y-101214860D01*
X146683309Y-101231450D01*
X146703249Y-101247120D01*
X146723944Y-101261836D01*
X146745360Y-101275566D01*
X146767465Y-101288276D01*
X146790225Y-101299933D01*
X146813606Y-101310503D01*
X146837576Y-101319954D01*
X146862102Y-101328253D01*
X146887150Y-101335366D01*
X146912688Y-101341260D01*
X146938681Y-101345902D01*
X146965098Y-101349259D01*
X146991904Y-101351297D01*
X147019067Y-101351984D01*
X148797067Y-101351984D01*
X148824229Y-101351297D01*
X148851035Y-101349259D01*
X148877452Y-101345902D01*
X148903445Y-101341260D01*
X148928983Y-101335366D01*
X148954031Y-101328253D01*
X148978557Y-101319954D01*
X149002527Y-101310503D01*
X149025909Y-101299933D01*
X149048668Y-101288276D01*
X149070773Y-101275566D01*
X149092189Y-101261836D01*
X149112884Y-101247120D01*
X149132824Y-101231450D01*
X149151977Y-101214860D01*
X149170308Y-101197382D01*
X149187786Y-101179050D01*
X149204376Y-101159898D01*
X149220046Y-101139957D01*
X149234763Y-101119263D01*
X149248492Y-101097846D01*
X149261202Y-101075742D01*
X149272859Y-101052982D01*
X149283430Y-101029601D01*
X149292881Y-101005630D01*
X149301179Y-100981105D01*
X149308292Y-100956056D01*
X149314186Y-100930519D01*
X149318828Y-100904525D01*
X149322185Y-100878109D01*
X149324223Y-100851303D01*
X149324910Y-100824140D01*
X149324910Y-97564474D01*
X149324223Y-97537311D01*
X149322185Y-97510505D01*
X149318828Y-97484088D01*
X149314186Y-97458095D01*
X149308292Y-97432557D01*
X149301179Y-97407509D01*
X149292881Y-97382983D01*
X149283430Y-97359013D01*
X149272859Y-97335632D01*
X149261202Y-97312872D01*
X149248492Y-97290767D01*
X149234763Y-97269351D01*
X149220046Y-97248656D01*
X149204376Y-97228716D01*
X149187786Y-97209563D01*
X149170308Y-97191232D01*
X149151977Y-97173754D01*
X149132824Y-97157164D01*
X149112884Y-97141494D01*
X149092189Y-97126777D01*
X149070773Y-97113048D01*
X149048668Y-97100338D01*
X149025909Y-97088681D01*
X149002527Y-97078110D01*
X148978557Y-97068659D01*
X148954031Y-97060361D01*
X148928983Y-97053248D01*
X148903445Y-97047354D01*
X148877452Y-97042712D01*
X148851035Y-97039355D01*
X148824229Y-97037317D01*
X148797067Y-97036630D01*
X147019067Y-97036630D01*
X146991904Y-97037317D01*
X146965098Y-97039355D01*
X146938681Y-97042712D01*
X146912688Y-97047354D01*
X146887150Y-97053248D01*
X146862102Y-97060361D01*
X146837576Y-97068659D01*
X146813606Y-97078110D01*
X146790225Y-97088681D01*
X146767465Y-97100338D01*
X146745360Y-97113048D01*
X146723944Y-97126777D01*
X146703249Y-97141494D01*
X146683309Y-97157164D01*
X146664156Y-97173754D01*
X146645825Y-97191232D01*
X146628347Y-97209563D01*
X146611757Y-97228716D01*
X146596087Y-97248656D01*
X146581370Y-97269351D01*
X146567641Y-97290767D01*
X146554931Y-97312872D01*
X146543274Y-97335632D01*
X146532703Y-97359013D01*
X146523252Y-97382983D01*
X146514954Y-97407509D01*
X146507841Y-97432557D01*
X146501947Y-97458095D01*
X146497305Y-97484088D01*
X146493948Y-97510505D01*
X146491910Y-97537311D01*
X146491223Y-97564474D01*
X146491223Y-100824140D01*
X146491910Y-100851303D01*
D12*
X147803152Y-101891541D02*
X148469819Y-102129636D01*
X148469819Y-102129636D02*
X147803152Y-102367731D01*
X147469819Y-102939160D02*
X147469819Y-103034398D01*
X147469819Y-103034398D02*
X147517438Y-103129636D01*
X147517438Y-103129636D02*
X147565057Y-103177255D01*
X147565057Y-103177255D02*
X147660295Y-103224874D01*
X147660295Y-103224874D02*
X147850771Y-103272493D01*
X147850771Y-103272493D02*
X148088866Y-103272493D01*
X148088866Y-103272493D02*
X148279342Y-103224874D01*
X148279342Y-103224874D02*
X148374580Y-103177255D01*
X148374580Y-103177255D02*
X148422200Y-103129636D01*
X148422200Y-103129636D02*
X148469819Y-103034398D01*
X148469819Y-103034398D02*
X148469819Y-102939160D01*
X148469819Y-102939160D02*
X148422200Y-102843922D01*
X148422200Y-102843922D02*
X148374580Y-102796303D01*
X148374580Y-102796303D02*
X148279342Y-102748684D01*
X148279342Y-102748684D02*
X148088866Y-102701065D01*
X148088866Y-102701065D02*
X147850771Y-102701065D01*
X147850771Y-102701065D02*
X147660295Y-102748684D01*
X147660295Y-102748684D02*
X147565057Y-102796303D01*
X147565057Y-102796303D02*
X147517438Y-102843922D01*
X147517438Y-102843922D02*
X147469819Y-102939160D01*
X148374580Y-103701065D02*
X148422200Y-103748684D01*
X148422200Y-103748684D02*
X148469819Y-103701065D01*
X148469819Y-103701065D02*
X148422200Y-103653446D01*
X148422200Y-103653446D02*
X148374580Y-103701065D01*
X148374580Y-103701065D02*
X148469819Y-103701065D01*
X148469819Y-104224874D02*
X148469819Y-104415350D01*
X148469819Y-104415350D02*
X148422200Y-104510588D01*
X148422200Y-104510588D02*
X148374580Y-104558207D01*
X148374580Y-104558207D02*
X148231723Y-104653445D01*
X148231723Y-104653445D02*
X148041247Y-104701064D01*
X148041247Y-104701064D02*
X147660295Y-104701064D01*
X147660295Y-104701064D02*
X147565057Y-104653445D01*
X147565057Y-104653445D02*
X147517438Y-104605826D01*
X147517438Y-104605826D02*
X147469819Y-104510588D01*
X147469819Y-104510588D02*
X147469819Y-104320112D01*
X147469819Y-104320112D02*
X147517438Y-104224874D01*
X147517438Y-104224874D02*
X147565057Y-104177255D01*
X147565057Y-104177255D02*
X147660295Y-104129636D01*
X147660295Y-104129636D02*
X147898390Y-104129636D01*
X147898390Y-104129636D02*
X147993628Y-104177255D01*
X147993628Y-104177255D02*
X148041247Y-104224874D01*
X148041247Y-104224874D02*
X148088866Y-104320112D01*
X148088866Y-104320112D02*
X148088866Y-104510588D01*
X148088866Y-104510588D02*
X148041247Y-104605826D01*
X148041247Y-104605826D02*
X147993628Y-104653445D01*
X147993628Y-104653445D02*
X147898390Y-104701064D01*
X147469819Y-105034398D02*
X147469819Y-105653445D01*
X147469819Y-105653445D02*
X147850771Y-105320112D01*
X147850771Y-105320112D02*
X147850771Y-105462969D01*
X147850771Y-105462969D02*
X147898390Y-105558207D01*
X147898390Y-105558207D02*
X147946009Y-105605826D01*
X147946009Y-105605826D02*
X148041247Y-105653445D01*
X148041247Y-105653445D02*
X148279342Y-105653445D01*
X148279342Y-105653445D02*
X148374580Y-105605826D01*
X148374580Y-105605826D02*
X148422200Y-105558207D01*
X148422200Y-105558207D02*
X148469819Y-105462969D01*
X148469819Y-105462969D02*
X148469819Y-105177255D01*
X148469819Y-105177255D02*
X148422200Y-105082017D01*
X148422200Y-105082017D02*
X148374580Y-105034398D01*
M02*
