%TF.GenerationSoftware,KiCad,Pcbnew,10.0.5*%
%TF.CreationDate,2026-08-27T19:56:03+05:30*%
%TF.ProjectId,OpenDongle-CH570,4f70656e-446f-46e6-976c-652d43483537,rev?*%
%TF.SameCoordinates,Original*%
%TF.FileFunction,Copper,L1,Top*%
%TF.FilePolarity,Positive*%
%FSLAX46Y46*%
G04 Gerber Fmt 4.6, Leading zero omitted, Abs format (unit mm)*
G04 Created by KiCad (PCBNEW 10.0.5) date 2026-08-27 19:56:03*
%MOMM*%
%LPD*%
G01*
G04 APERTURE LIST*
G04 Aperture macros list*
%AMRoundRect*
0 Rectangle with rounded corners*
0 $1 Rounding radius*
0 $2 $3 $4 $5 $6 $7 $8 $9 X,Y pos of 4 corners*
0 Add a 4 corners polygon primitive as box body*
4,1,4,$2,$3,$4,$5,$6,$7,$8,$9,$2,$3,0*
0 Add four circle primitives for the rounded corners*
1,1,$1+$1,$2,$3*
1,1,$1+$1,$4,$5*
1,1,$1+$1,$6,$7*
1,1,$1+$1,$8,$9*
0 Add four rect primitives between the rounded corners*
20,1,$1+$1,$2,$3,$4,$5,0*
20,1,$1+$1,$4,$5,$6,$7,0*
20,1,$1+$1,$6,$7,$8,$9,0*
20,1,$1+$1,$8,$9,$2,$3,0*%
%AMFreePoly0*
4,1,173,0.075009,2.749996,0.375000,2.749996,0.375000,2.750000,0.525003,2.750000,0.525003,1.000003,0.674993,1.000003,0.674993,2.750000,0.824990,2.750000,0.824990,2.749996,0.974990,2.749996,0.974990,2.750000,1.124990,2.750000,1.124990,1.000003,1.274987,1.000003,1.274987,2.750000,1.424984,2.750000,1.424984,2.749996,1.574978,2.749996,1.574978,2.750000,1.724981,2.750000,
1.724981,1.000003,1.874971,1.000003,1.874971,2.750000,2.024968,2.750000,2.024968,2.749996,2.174965,2.749996,2.174965,2.750000,2.324968,2.750000,2.324968,1.000003,2.474959,1.000003,2.474959,2.750000,2.624959,2.750000,2.624959,2.749996,2.774956,2.749996,2.774956,2.750000,2.924956,2.750000,2.924956,1.000003,3.074950,1.000003,3.074950,2.750000,3.224946,2.750000,
3.224946,2.749996,3.374943,2.749996,3.374943,2.750000,3.524946,2.750000,3.524946,1.000003,3.674937,1.000003,3.674937,2.750000,3.824934,2.750000,3.824934,2.749996,3.974931,2.749996,3.974931,2.750000,4.124934,2.750000,4.124934,1.000003,4.274928,1.000003,4.274928,2.750000,4.424925,2.750000,4.424925,2.749996,4.574921,2.749996,4.574921,2.750000,4.724921,2.750000,
4.724921,1.000003,4.874915,1.000003,4.874915,2.750000,5.024912,2.750000,5.024912,2.749996,5.174909,2.749996,5.174909,2.750000,5.324912,2.750000,5.324912,1.000003,5.474903,1.000003,5.474903,2.750000,5.624900,2.750000,5.624900,2.749996,5.774896,2.749996,5.774896,2.750000,5.924900,2.750000,5.924900,1.000003,6.074893,1.000003,6.074893,2.750000,6.224890,2.750000,
6.224890,2.749996,6.374887,2.749996,6.374887,2.750000,6.524890,2.750000,6.524890,1.000003,6.674881,1.000003,6.674881,2.750000,6.824878,2.750000,6.824878,2.749996,6.974875,2.749996,6.974875,2.750000,7.124878,2.750000,7.124878,1.000003,7.274868,1.000003,7.274868,2.750000,7.424865,2.750000,7.424865,2.749996,7.574865,2.749996,7.574865,2.750000,7.724865,2.750000,
7.724865,1.000003,7.874859,1.000003,7.874859,2.750000,8.024856,2.750000,8.024856,2.749996,8.174853,2.749996,8.174853,2.750000,8.324856,2.750000,8.324856,0.850003,8.174853,0.850003,8.174853,2.600000,8.024856,2.600000,8.024856,0.850003,7.574865,0.850003,7.574865,2.600000,7.424865,2.600000,7.424865,0.850003,6.974875,0.850003,6.974875,2.600000,6.824878,2.600000,
6.824878,0.850003,6.374887,0.850003,6.374887,2.600000,6.224890,2.600000,6.224890,0.850003,5.774896,0.850003,5.774896,2.600000,5.624900,2.600000,5.624900,0.850003,5.174909,0.850003,5.174909,2.600000,5.024912,2.600000,5.024912,0.850003,4.574921,0.850003,4.574921,2.600000,4.424925,2.600000,4.424925,0.850003,3.974931,0.850003,3.974931,2.600000,3.824934,2.600000,
3.824934,0.850003,3.374943,0.850003,3.374943,2.600000,3.224946,2.600000,3.224946,0.850003,2.774956,0.850003,2.774956,2.600000,2.624959,2.600000,2.624959,0.850003,2.174965,0.850003,2.174965,2.600000,2.024968,2.600000,2.024968,0.850003,1.574978,0.850003,1.574978,2.600000,1.424984,2.600000,1.424984,0.850003,0.974990,0.850003,0.974990,2.600000,0.824990,2.600000,
0.824990,0.850003,0.375000,0.850003,0.375000,2.600000,0.075009,2.600000,0.075009,2.599999,0.075000,2.599999,0.075000,-0.075000,-0.075000,-0.075000,-0.075000,2.599999,-0.674998,2.599999,-0.674998,2.750002,0.075009,2.750002,0.075009,2.749996,0.075009,2.749996,$1*%
%AMFreePoly1*
4,1,5,0.150000,-0.150000,-0.150000,-0.150000,-0.150000,2.750000,0.150000,2.750000,0.150000,-0.150000,0.150000,-0.150000,$1*%
G04 Aperture macros list end*
%TA.AperFunction,SMDPad,CuDef*%
%ADD10RoundRect,0.225000X-0.250000X0.225000X-0.250000X-0.225000X0.250000X-0.225000X0.250000X0.225000X0*%
%TD*%
%TA.AperFunction,SMDPad,CuDef*%
%ADD11RoundRect,0.200000X0.275000X-0.200000X0.275000X0.200000X-0.275000X0.200000X-0.275000X-0.200000X0*%
%TD*%
%TA.AperFunction,SMDPad,CuDef*%
%ADD12RoundRect,0.200000X0.318198X-0.035355X-0.035355X0.318198X-0.318198X0.035355X0.035355X-0.318198X0*%
%TD*%
%TA.AperFunction,SMDPad,CuDef*%
%ADD13RoundRect,0.062500X-0.350000X-0.062500X0.350000X-0.062500X0.350000X0.062500X-0.350000X0.062500X0*%
%TD*%
%TA.AperFunction,HeatsinkPad*%
%ADD14R,1.700000X2.500000*%
%TD*%
%TA.AperFunction,SMDPad,CuDef*%
%ADD15FreePoly0,270.000000*%
%TD*%
%TA.AperFunction,SMDPad,CuDef*%
%ADD16FreePoly1,270.000000*%
%TD*%
%TA.AperFunction,ViaPad*%
%ADD17C,0.600000*%
%TD*%
%TA.AperFunction,ViaPad*%
%ADD18C,0.500000*%
%TD*%
%TA.AperFunction,Conductor*%
%ADD19C,0.250000*%
%TD*%
%TA.AperFunction,Conductor*%
%ADD20C,0.200000*%
%TD*%
%TA.AperFunction,Conductor*%
%ADD21C,0.150000*%
%TD*%
G04 APERTURE END LIST*
D10*
%TO.P,C4,1*%
%TO.N,+3.3V*%
X141211773Y-97429772D03*
%TO.P,C4,2*%
%TO.N,GND*%
X141211773Y-98979772D03*
%TD*%
D11*
%TO.P,R1,1*%
%TO.N,VCC*%
X139680000Y-99079772D03*
%TO.P,R1,2*%
%TO.N,+3.3V*%
X139680000Y-97429772D03*
%TD*%
D10*
%TO.P,C3,1*%
%TO.N,+3.3V*%
X142751773Y-97429772D03*
%TO.P,C3,2*%
%TO.N,GND*%
X142751773Y-98979772D03*
%TD*%
D12*
%TO.P,Y1,1,1_1*%
%TO.N,X32MI*%
X148725568Y-102353810D03*
%TO.P,Y1,2,G_2*%
%TO.N,GND*%
X147735619Y-101363861D03*
%TO.P,Y1,3,3_3*%
%TO.N,X32MO*%
X146957802Y-102141678D03*
%TO.P,Y1,4,G_4*%
%TO.N,GND*%
X147947751Y-103131627D03*
%TD*%
D10*
%TO.P,C1,1*%
%TO.N,VCC*%
X141211773Y-100459993D03*
%TO.P,C1,2*%
%TO.N,GND*%
X141211773Y-102009993D03*
%TD*%
D13*
%TO.P,U1,1,VDD33/VIO33_1*%
%TO.N,+3.3V*%
X145525000Y-97430000D03*
%TO.P,U1,2,V5_2*%
%TO.N,VCC*%
X145525000Y-97930000D03*
%TO.P,U1,3,PA0/UDM/R2/T3/SCL1/SWD_3*%
%TO.N,D-*%
X145525000Y-98430000D03*
%TO.P,U1,4,PA1/UDP/T2/R3/SDA/SWCLK_4*%
%TO.N,D+*%
X145525000Y-98930000D03*
%TO.P,U1,5,PA7/T4/TMR/RST_/CAP_IN1/CMP_P1_5*%
%TO.N,unconnected-(U1-PA7{slash}T4{slash}TMR{slash}RST_{slash}CAP_IN1{slash}CMP_P1-Pad5)*%
X145525000Y-99430000D03*
%TO.P,U1,6,PA2/R/T1/SDA2/TMR1/CMP_N_6*%
%TO.N,unconnected-(U1-PA2{slash}R{slash}T1{slash}SDA2{slash}TMR1{slash}CMP_N-Pad6)*%
X148450000Y-99430000D03*
%TO.P,U1,7,PA3/T/R1/SCL2/CMP_P0/SCK__7*%
%TO.N,unconnected-(U1-PA3{slash}T{slash}R1{slash}SCL2{slash}CMP_P0{slash}SCK_-Pad7)*%
X148450000Y-98930000D03*
%TO.P,U1,8,XO_8*%
%TO.N,X32MO*%
X148450000Y-98430000D03*
%TO.P,U1,9,XI_9*%
%TO.N,X32MI*%
X148450000Y-97930000D03*
%TO.P,U1,10,ANT_10*%
%TO.N,ANT*%
X148450000Y-97430000D03*
D14*
%TO.P,U1,11,GND_11*%
%TO.N,GND*%
X146987500Y-98430000D03*
%TD*%
D15*
%TO.P,AE2,1,FEED_1*%
%TO.N,ANT*%
X150505076Y-97430981D03*
D16*
%TO.P,AE2,2,PCB_Trace_2*%
%TO.N,GND*%
X150505076Y-96905985D03*
%TD*%
D10*
%TO.P,C2,1*%
%TO.N,VCC*%
X142751773Y-100459993D03*
%TO.P,C2,2*%
%TO.N,GND*%
X142751773Y-102009993D03*
%TD*%
D17*
%TO.N,GND*%
X138204766Y-105072817D03*
D18*
X145297120Y-104289194D03*
X150204042Y-104221484D03*
X150206923Y-98224871D03*
X150206923Y-100474871D03*
X150204042Y-104971484D03*
X145297120Y-105039194D03*
X144889497Y-104667709D03*
X150204042Y-105721484D03*
X150206923Y-98974871D03*
X150208802Y-96900000D03*
X150199803Y-99716612D03*
X145297120Y-105789194D03*
X144889497Y-105417709D03*
D17*
X146987500Y-98430000D03*
D18*
X150206923Y-101974871D03*
X150206923Y-101224871D03*
X150204042Y-102721484D03*
X150196922Y-103463225D03*
D17*
%TO.N,VCC*%
X138204766Y-97452817D03*
%TO.N,D-*%
X144180000Y-99320000D03*
%TO.N,D+*%
X144394766Y-101902817D03*
%TD*%
%TO.N,+3.3V*%
D19*
X145525000Y-97430000D02*
X145523070Y-97431930D01*
X142751773Y-97431930D02*
X141211773Y-97431930D01*
X141211773Y-97429772D02*
X139680000Y-97429772D01*
X145523070Y-97431930D02*
X142751773Y-97431930D01*
%TO.N,VCC*%
X138204766Y-97604538D02*
X139680000Y-99079772D01*
X143555000Y-99061116D02*
X143555000Y-99656766D01*
X141060221Y-100459993D02*
X139680000Y-99079772D01*
X142751773Y-100459993D02*
X141211773Y-100459993D01*
X143555000Y-99656766D02*
X142751773Y-100459993D01*
X141211773Y-100459993D02*
X141060221Y-100459993D01*
X144686116Y-97930000D02*
X143555000Y-99061116D01*
X145525000Y-97930000D02*
X144686116Y-97930000D01*
X138204766Y-97452817D02*
X138204766Y-97604538D01*
%TO.N,X32MI*%
D20*
X148942571Y-97930000D02*
X149562500Y-98549929D01*
X148450000Y-97930000D02*
X148942571Y-97930000D01*
X149562500Y-101516878D02*
X148725568Y-102353810D01*
X149562500Y-98549929D02*
X149562500Y-101516878D01*
%TO.N,X32MO*%
X148450000Y-98430000D02*
X148876886Y-98430000D01*
X146913503Y-102097379D02*
X146957802Y-102141678D01*
X146913503Y-101125315D02*
X146913503Y-102097379D01*
X149162500Y-99644386D02*
X148265141Y-100541745D01*
X149162500Y-98715614D02*
X149162500Y-99644386D01*
X148876886Y-98430000D02*
X149162500Y-98715614D01*
X148265141Y-100541745D02*
X147497073Y-100541745D01*
X147497073Y-100541745D02*
X146913503Y-101125315D01*
%TO.N,D-*%
X144180000Y-99282429D02*
X144180000Y-99320000D01*
X145525000Y-98430000D02*
X145032429Y-98430000D01*
X145032429Y-98430000D02*
X144180000Y-99282429D01*
%TO.N,D+*%
X144780000Y-99248114D02*
X144780000Y-101517583D01*
X145525000Y-98930000D02*
X145098114Y-98930000D01*
X144780000Y-101517583D02*
X144394766Y-101902817D01*
X145098114Y-98930000D02*
X144780000Y-99248114D01*
%TO.N,ANT*%
D21*
X150505076Y-97430981D02*
X148450981Y-97430981D01*
X148450981Y-97430981D02*
X148450000Y-97430000D01*
%TD*%
%TA.AperFunction,Conductor*%
%TO.N,GND*%
G36*
X150414475Y-96454227D02*
G01*
X150421369Y-96457083D01*
X150447889Y-96483598D01*
X150447893Y-96483607D01*
X150450747Y-96490499D01*
X150454475Y-96509247D01*
X150454469Y-97094197D01*
X150450739Y-97112947D01*
X150447275Y-97121310D01*
X150423259Y-97146710D01*
X150418450Y-97149025D01*
X150402689Y-97153565D01*
X150398594Y-97154027D01*
X150398587Y-97154028D01*
X150389791Y-97155019D01*
X150387058Y-97155250D01*
X150384311Y-97155404D01*
X150381568Y-97155481D01*
X149040464Y-97155481D01*
X149027140Y-97153635D01*
X149010825Y-97149025D01*
X148883206Y-97112964D01*
X148883202Y-97112963D01*
X148883197Y-97112962D01*
X148842783Y-97107742D01*
X148839502Y-97107205D01*
X148825902Y-97104500D01*
X148825900Y-97104500D01*
X148074106Y-97104500D01*
X148074103Y-97104500D01*
X148016562Y-97115945D01*
X147997381Y-97119760D01*
X147997378Y-97119761D01*
X147910391Y-97177883D01*
X147910384Y-97177889D01*
X147852258Y-97264884D01*
X147837000Y-97341591D01*
X147837000Y-97341593D01*
X147837000Y-97341595D01*
X147837000Y-97518396D01*
X147849140Y-97579432D01*
X147851392Y-97590756D01*
X147852260Y-97595117D01*
X147852261Y-97595120D01*
X147866395Y-97616273D01*
X147885370Y-97644672D01*
X147892687Y-97662338D01*
X147895171Y-97674829D01*
X147887855Y-97711608D01*
X147875531Y-97730053D01*
X147852259Y-97764883D01*
X147837000Y-97841595D01*
X147837000Y-98018396D01*
X147852260Y-98095117D01*
X147852261Y-98095120D01*
X147852262Y-98095121D01*
X147885370Y-98144672D01*
X147892687Y-98162338D01*
X147895171Y-98174829D01*
X147887854Y-98211608D01*
X147852259Y-98264883D01*
X147837000Y-98341595D01*
X147837000Y-98518396D01*
X147852260Y-98595117D01*
X147852261Y-98595120D01*
X147852262Y-98595121D01*
X147885370Y-98644672D01*
X147892687Y-98662338D01*
X147895171Y-98674829D01*
X147887854Y-98711608D01*
X147852259Y-98764883D01*
X147837000Y-98841595D01*
X147837000Y-99018396D01*
X147852260Y-99095117D01*
X147852261Y-99095120D01*
X147852262Y-99095121D01*
X147885370Y-99144672D01*
X147892687Y-99162338D01*
X147895171Y-99174829D01*
X147887854Y-99211608D01*
X147852259Y-99264883D01*
X147837000Y-99341595D01*
X147837000Y-99518396D01*
X147852260Y-99595115D01*
X147852260Y-99595117D01*
X147852261Y-99595120D01*
X147910383Y-99682107D01*
X147910387Y-99682112D01*
X147929113Y-99694624D01*
X147951767Y-99709760D01*
X147997383Y-99740240D01*
X148074099Y-99755500D01*
X148498370Y-99755499D01*
X148517115Y-99759226D01*
X148518357Y-99759740D01*
X148521990Y-99761245D01*
X148548511Y-99787759D01*
X148548517Y-99825262D01*
X148548514Y-99825269D01*
X148546495Y-99830143D01*
X148535873Y-99846039D01*
X148161914Y-100220000D01*
X148146020Y-100230621D01*
X148129381Y-100237514D01*
X148110627Y-100241245D01*
X147457505Y-100241245D01*
X147381084Y-100261722D01*
X147310655Y-100302385D01*
X147307997Y-100305849D01*
X146677607Y-100936239D01*
X146674144Y-100938896D01*
X146633482Y-101009321D01*
X146631813Y-101015553D01*
X146631812Y-101015557D01*
X146613003Y-101085749D01*
X146613003Y-101536487D01*
X146609273Y-101555240D01*
X146602380Y-101571880D01*
X146591758Y-101587775D01*
X146334133Y-101845400D01*
X146334118Y-101845417D01*
X146325463Y-101857330D01*
X146278308Y-101922232D01*
X146265240Y-101962452D01*
X146239104Y-102042890D01*
X146239104Y-102169756D01*
X146278308Y-102290412D01*
X146303971Y-102325734D01*
X146334126Y-102367240D01*
X146334128Y-102367242D01*
X146732273Y-102765385D01*
X146732369Y-102765465D01*
X146733010Y-102765911D01*
X146809068Y-102821172D01*
X146929724Y-102860376D01*
X146929726Y-102860376D01*
X147056588Y-102860376D01*
X147056590Y-102860376D01*
X147177247Y-102821172D01*
X147254066Y-102765360D01*
X147581482Y-102437942D01*
X147637296Y-102361123D01*
X147676500Y-102240466D01*
X147676500Y-102113600D01*
X147637296Y-101992944D01*
X147581484Y-101916124D01*
X147581482Y-101916122D01*
X147581479Y-101916118D01*
X147581478Y-101916116D01*
X147235247Y-101569887D01*
X147224625Y-101553990D01*
X147217732Y-101537349D01*
X147214003Y-101518599D01*
X147214003Y-101279829D01*
X147217732Y-101261079D01*
X147224626Y-101244435D01*
X147235244Y-101228544D01*
X147600302Y-100863486D01*
X147616193Y-100852868D01*
X147632838Y-100845973D01*
X147651587Y-100842245D01*
X148304704Y-100842245D01*
X148304705Y-100842245D01*
X148331371Y-100835099D01*
X148381130Y-100821766D01*
X148449652Y-100782205D01*
X148505601Y-100726256D01*
X149171462Y-100060394D01*
X149187352Y-100049776D01*
X149192230Y-100047755D01*
X149229732Y-100047755D01*
X149256251Y-100074274D01*
X149258270Y-100079148D01*
X149262000Y-100097900D01*
X149262000Y-101362362D01*
X149258270Y-101381115D01*
X149251377Y-101397755D01*
X149240755Y-101413650D01*
X148972057Y-101682347D01*
X148963831Y-101685754D01*
X148957763Y-101692272D01*
X148956159Y-101692970D01*
X148947216Y-101696674D01*
X148913322Y-101698004D01*
X148909094Y-101696630D01*
X148895438Y-101689672D01*
X148890045Y-101685754D01*
X148874302Y-101674316D01*
X148874300Y-101674315D01*
X148830799Y-101660181D01*
X148753646Y-101635112D01*
X148753644Y-101635112D01*
X148626782Y-101635112D01*
X148626780Y-101635112D01*
X148549626Y-101660181D01*
X148513503Y-101671918D01*
X148510926Y-101672326D01*
X148505214Y-101674692D01*
X148503005Y-101676579D01*
X148429300Y-101730130D01*
X148429295Y-101730134D01*
X148101904Y-102057527D01*
X148101892Y-102057540D01*
X148101884Y-102057549D01*
X148074252Y-102095581D01*
X148055692Y-102121127D01*
X148046072Y-102134367D01*
X148043006Y-102143801D01*
X148043007Y-102143802D01*
X148029444Y-102185545D01*
X148006870Y-102255022D01*
X148006870Y-102381888D01*
X148013833Y-102403317D01*
X148046073Y-102502544D01*
X148047083Y-102504191D01*
X148048341Y-102505664D01*
X148101892Y-102579372D01*
X148101894Y-102579374D01*
X148500039Y-102977517D01*
X148500135Y-102977597D01*
X148500776Y-102978043D01*
X148576834Y-103033304D01*
X148697490Y-103072508D01*
X148697492Y-103072508D01*
X148824354Y-103072508D01*
X148824356Y-103072508D01*
X148945013Y-103033304D01*
X149021832Y-102977492D01*
X149349248Y-102650074D01*
X149405062Y-102573255D01*
X149444266Y-102452598D01*
X149444266Y-102325732D01*
X149405062Y-102205076D01*
X149390868Y-102185539D01*
X149382867Y-102168181D01*
X149380607Y-102158765D01*
X149384594Y-102125086D01*
X149386613Y-102121124D01*
X149395620Y-102108726D01*
X149802960Y-101701389D01*
X149842522Y-101632866D01*
X149859601Y-101569122D01*
X149863000Y-101563236D01*
X149863000Y-98510365D01*
X149850822Y-98464920D01*
X149850822Y-98464919D01*
X149842520Y-98433938D01*
X149842520Y-98433937D01*
X149802959Y-98365417D01*
X149234563Y-97797021D01*
X149223941Y-97781125D01*
X149221922Y-97776251D01*
X149221921Y-97738748D01*
X149248438Y-97712230D01*
X149253321Y-97710207D01*
X149272066Y-97706481D01*
X150398112Y-97706481D01*
X150426468Y-97715519D01*
X150432969Y-97720132D01*
X150451698Y-97746529D01*
X150452547Y-97749476D01*
X150454462Y-97763041D01*
X150454387Y-105757701D01*
X150454402Y-105990749D01*
X150450673Y-106009503D01*
X150447818Y-106016396D01*
X150421307Y-106042912D01*
X150417783Y-106044372D01*
X150414415Y-106045767D01*
X150395658Y-106049500D01*
X137609247Y-106049500D01*
X137590499Y-106045771D01*
X137583601Y-106042914D01*
X137557085Y-106016398D01*
X137554227Y-106009497D01*
X137550500Y-105990752D01*
X137550500Y-97386917D01*
X137704266Y-97386917D01*
X137704266Y-97518715D01*
X137738260Y-97645581D01*
X137738362Y-97645977D01*
X137738374Y-97646005D01*
X137779259Y-97716818D01*
X137804266Y-97760131D01*
X137897452Y-97853317D01*
X137923069Y-97868107D01*
X138011577Y-97919208D01*
X138011580Y-97919209D01*
X138057593Y-97931538D01*
X138069407Y-97936430D01*
X138080207Y-97942666D01*
X138090352Y-97950451D01*
X138983255Y-98843354D01*
X138993877Y-98859249D01*
X139000770Y-98875889D01*
X139004500Y-98894642D01*
X139004500Y-99311288D01*
X139019352Y-99405074D01*
X139076938Y-99518095D01*
X139076947Y-99518110D01*
X139076949Y-99518113D01*
X139076957Y-99518122D01*
X139166648Y-99607813D01*
X139166657Y-99607821D01*
X139166664Y-99607826D01*
X139166670Y-99607829D01*
X139166675Y-99607832D01*
X139279940Y-99665543D01*
X139281574Y-99665868D01*
X139283489Y-99666018D01*
X139373481Y-99680272D01*
X139790128Y-99680271D01*
X139808878Y-99684000D01*
X139825519Y-99690893D01*
X139841416Y-99701515D01*
X140515028Y-100375127D01*
X140525650Y-100391022D01*
X140532543Y-100407662D01*
X140536273Y-100426415D01*
X140536273Y-100718481D01*
X140546366Y-100782204D01*
X140551451Y-100814311D01*
X140551598Y-100816191D01*
X140552054Y-100818120D01*
X140552104Y-100818220D01*
X140613233Y-100938194D01*
X140613242Y-100938209D01*
X140613244Y-100938212D01*
X140613252Y-100938221D01*
X140708543Y-101033512D01*
X140708552Y-101033520D01*
X140708559Y-101033525D01*
X140811060Y-101085751D01*
X140828647Y-101094712D01*
X140928285Y-101110493D01*
X140928287Y-101110493D01*
X141495259Y-101110493D01*
X141495261Y-101110493D01*
X141594899Y-101094712D01*
X141662652Y-101060190D01*
X141713039Y-101034516D01*
X141714654Y-101033784D01*
X141714898Y-101033615D01*
X141714991Y-101033521D01*
X141714993Y-101033521D01*
X141810301Y-100938213D01*
X141837489Y-100884855D01*
X141867900Y-100825167D01*
X141874293Y-100815601D01*
X141874521Y-100815333D01*
X141874522Y-100815334D01*
X141885107Y-100802939D01*
X141910956Y-100787110D01*
X141912087Y-100786838D01*
X141923494Y-100785493D01*
X142036106Y-100785493D01*
X142054856Y-100789222D01*
X142065792Y-100793752D01*
X142088818Y-100813419D01*
X142092800Y-100819917D01*
X142094680Y-100823275D01*
X142153238Y-100938203D01*
X142153244Y-100938212D01*
X142153252Y-100938221D01*
X142248543Y-101033512D01*
X142248552Y-101033520D01*
X142248559Y-101033525D01*
X142351060Y-101085751D01*
X142368647Y-101094712D01*
X142468285Y-101110493D01*
X142468287Y-101110493D01*
X143035259Y-101110493D01*
X143035261Y-101110493D01*
X143134899Y-101094712D01*
X143202652Y-101060190D01*
X143253039Y-101034516D01*
X143254654Y-101033784D01*
X143254898Y-101033615D01*
X143254991Y-101033521D01*
X143254993Y-101033521D01*
X143350301Y-100938213D01*
X143350307Y-100938203D01*
X143391886Y-100856597D01*
X143411492Y-100818119D01*
X143427273Y-100718481D01*
X143427273Y-100274859D01*
X143431003Y-100256108D01*
X143437895Y-100239469D01*
X143448514Y-100223576D01*
X143747967Y-99924122D01*
X143747974Y-99924118D01*
X143754861Y-99917231D01*
X143754862Y-99917231D01*
X143815465Y-99856628D01*
X143855359Y-99787528D01*
X143858910Y-99782213D01*
X143860678Y-99779907D01*
X143860679Y-99779908D01*
X143868550Y-99769644D01*
X143901019Y-99750890D01*
X143904312Y-99750455D01*
X143935213Y-99756599D01*
X143979906Y-99782404D01*
X143979908Y-99782405D01*
X143979907Y-99782405D01*
X143985061Y-99785380D01*
X143986814Y-99786392D01*
X144073029Y-99809493D01*
X144111017Y-99819671D01*
X144113455Y-99820500D01*
X144245895Y-99820500D01*
X144252688Y-99820500D01*
X144258572Y-99817102D01*
X144373186Y-99786392D01*
X144397560Y-99772318D01*
X144415666Y-99766172D01*
X144419969Y-99765605D01*
X144423062Y-99765199D01*
X144459276Y-99774899D01*
X144459732Y-99775249D01*
X144477239Y-99801442D01*
X144477829Y-99803643D01*
X144479500Y-99816330D01*
X144479500Y-101343569D01*
X144475771Y-101362318D01*
X144475754Y-101362362D01*
X144472916Y-101369213D01*
X144446398Y-101395731D01*
X144439503Y-101398587D01*
X144420753Y-101402317D01*
X144328868Y-101402317D01*
X144202000Y-101436311D01*
X144201606Y-101436413D01*
X144201576Y-101436425D01*
X144085545Y-101503417D01*
X144082887Y-101506881D01*
X143998830Y-101590938D01*
X143995366Y-101593596D01*
X143928374Y-101709627D01*
X143928362Y-101709657D01*
X143928260Y-101710051D01*
X143894266Y-101836917D01*
X143894266Y-101968715D01*
X143928260Y-102095581D01*
X143928362Y-102095977D01*
X143928374Y-102096005D01*
X143970955Y-102169756D01*
X143994262Y-102210125D01*
X143994264Y-102210127D01*
X143994266Y-102210131D01*
X144087452Y-102303317D01*
X144126276Y-102325732D01*
X144169753Y-102350834D01*
X144201578Y-102369209D01*
X144275069Y-102388900D01*
X144301973Y-102396109D01*
X144325778Y-102402487D01*
X144328221Y-102403317D01*
X144460661Y-102403317D01*
X144467455Y-102403317D01*
X144473341Y-102399918D01*
X144587952Y-102369209D01*
X144591363Y-102367240D01*
X144603244Y-102360380D01*
X144702080Y-102303317D01*
X144795266Y-102210131D01*
X144861158Y-102096003D01*
X144891867Y-101981392D01*
X144895266Y-101975506D01*
X144895266Y-101857330D01*
X144898995Y-101838580D01*
X144899684Y-101836917D01*
X144905889Y-101821936D01*
X144916505Y-101806047D01*
X145020460Y-101702094D01*
X145028825Y-101687605D01*
X145060021Y-101633572D01*
X145060210Y-101632869D01*
X145070222Y-101595502D01*
X145077985Y-101566531D01*
X145080500Y-101557146D01*
X145080500Y-99811308D01*
X145084227Y-99792563D01*
X145087083Y-99785667D01*
X145113594Y-99759149D01*
X145116313Y-99758023D01*
X145117343Y-99757597D01*
X145145649Y-99754814D01*
X145148179Y-99755316D01*
X145149099Y-99755500D01*
X145900900Y-99755499D01*
X145977617Y-99740240D01*
X146064612Y-99682112D01*
X146122740Y-99595117D01*
X146138000Y-99518401D01*
X146137999Y-99341600D01*
X146122740Y-99264883D01*
X146089625Y-99215323D01*
X146082310Y-99197664D01*
X146079825Y-99185174D01*
X146087138Y-99148398D01*
X146122740Y-99095117D01*
X146138000Y-99018401D01*
X146137999Y-98841600D01*
X146122740Y-98764883D01*
X146089625Y-98715323D01*
X146082310Y-98697664D01*
X146079825Y-98685174D01*
X146087138Y-98648398D01*
X146122740Y-98595117D01*
X146138000Y-98518401D01*
X146137999Y-98341600D01*
X146122740Y-98264883D01*
X146089625Y-98215323D01*
X146082310Y-98197664D01*
X146079825Y-98185174D01*
X146087138Y-98148398D01*
X146122740Y-98095117D01*
X146138000Y-98018401D01*
X146137999Y-97841600D01*
X146122740Y-97764883D01*
X146099467Y-97730053D01*
X146089625Y-97715323D01*
X146082310Y-97697664D01*
X146079825Y-97685174D01*
X146087138Y-97648398D01*
X146122740Y-97595117D01*
X146138000Y-97518401D01*
X146137999Y-97341600D01*
X146122740Y-97264883D01*
X146103451Y-97236015D01*
X146103451Y-97236014D01*
X146064615Y-97177891D01*
X146064613Y-97177889D01*
X146064612Y-97177887D01*
X145999511Y-97134389D01*
X145981628Y-97122440D01*
X145979121Y-97120382D01*
X145976110Y-97119135D01*
X145972879Y-97118817D01*
X145900907Y-97104500D01*
X145900904Y-97104500D01*
X145900901Y-97104500D01*
X145567853Y-97104500D01*
X145567852Y-97104500D01*
X145482147Y-97104500D01*
X145482144Y-97104500D01*
X145149101Y-97104500D01*
X145149027Y-97104500D01*
X145148222Y-97104675D01*
X145146498Y-97105018D01*
X145141746Y-97105723D01*
X145136980Y-97106193D01*
X145132171Y-97106430D01*
X143468142Y-97106430D01*
X143449388Y-97102699D01*
X143438451Y-97098168D01*
X143415432Y-97078512D01*
X143414822Y-97077517D01*
X143413820Y-97075881D01*
X143411942Y-97072528D01*
X143350311Y-96951569D01*
X143350306Y-96951560D01*
X143350305Y-96951558D01*
X143350300Y-96951551D01*
X143350292Y-96951542D01*
X143255001Y-96856251D01*
X143254992Y-96856243D01*
X143254989Y-96856241D01*
X143254974Y-96856232D01*
X143135000Y-96795103D01*
X143134900Y-96795053D01*
X143132970Y-96794597D01*
X143131092Y-96794450D01*
X143113912Y-96791729D01*
X143035261Y-96779272D01*
X143035260Y-96779272D01*
X142468286Y-96779272D01*
X142468285Y-96779272D01*
X142389633Y-96791729D01*
X142372454Y-96794450D01*
X142370573Y-96794597D01*
X142368644Y-96795053D01*
X142368544Y-96795103D01*
X142248570Y-96856232D01*
X142248555Y-96856241D01*
X142248552Y-96856243D01*
X142248543Y-96856251D01*
X142153252Y-96951542D01*
X142153244Y-96951551D01*
X142153242Y-96951554D01*
X142153236Y-96951564D01*
X142093957Y-97067907D01*
X142087555Y-97077488D01*
X142077732Y-97088987D01*
X142051930Y-97104802D01*
X142050807Y-97105072D01*
X142039352Y-97106430D01*
X141928142Y-97106430D01*
X141909388Y-97102699D01*
X141898451Y-97098168D01*
X141875432Y-97078512D01*
X141874822Y-97077517D01*
X141873820Y-97075881D01*
X141871942Y-97072528D01*
X141810311Y-96951569D01*
X141810306Y-96951560D01*
X141810305Y-96951558D01*
X141810300Y-96951551D01*
X141810292Y-96951542D01*
X141715001Y-96856251D01*
X141714992Y-96856243D01*
X141714989Y-96856241D01*
X141714974Y-96856232D01*
X141595000Y-96795103D01*
X141594900Y-96795053D01*
X141592970Y-96794597D01*
X141591092Y-96794450D01*
X141573912Y-96791729D01*
X141495261Y-96779272D01*
X141495260Y-96779272D01*
X140928286Y-96779272D01*
X140928285Y-96779272D01*
X140849633Y-96791729D01*
X140832454Y-96794450D01*
X140830573Y-96794597D01*
X140828644Y-96795053D01*
X140828544Y-96795103D01*
X140708570Y-96856232D01*
X140708555Y-96856241D01*
X140708552Y-96856243D01*
X140708543Y-96856251D01*
X140613252Y-96951542D01*
X140613244Y-96951551D01*
X140613238Y-96951560D01*
X140555650Y-97064585D01*
X140549253Y-97074160D01*
X140538441Y-97086821D01*
X140512635Y-97102643D01*
X140511508Y-97102914D01*
X140500052Y-97104272D01*
X140380320Y-97104272D01*
X140361569Y-97100542D01*
X140349211Y-97095423D01*
X140324307Y-97072401D01*
X140283054Y-96991436D01*
X140283049Y-96991429D01*
X140283041Y-96991420D01*
X140193350Y-96901729D01*
X140193341Y-96901721D01*
X140193338Y-96901719D01*
X140193323Y-96901710D01*
X140080313Y-96844129D01*
X140080305Y-96844126D01*
X140080304Y-96844125D01*
X140076673Y-96843536D01*
X140076497Y-96843523D01*
X140060643Y-96841012D01*
X139986519Y-96829272D01*
X139986518Y-96829272D01*
X139373482Y-96829272D01*
X139279696Y-96844124D01*
X139166675Y-96901710D01*
X139166660Y-96901719D01*
X139166657Y-96901721D01*
X139166648Y-96901729D01*
X139076957Y-96991420D01*
X139076949Y-96991429D01*
X139076947Y-96991432D01*
X139076941Y-96991442D01*
X139019352Y-97104467D01*
X139019336Y-97104537D01*
X139018903Y-97106340D01*
X139018751Y-97108275D01*
X139004500Y-97198253D01*
X139004500Y-97661288D01*
X139019352Y-97755074D01*
X139076938Y-97868095D01*
X139076947Y-97868110D01*
X139076949Y-97868113D01*
X139076957Y-97868122D01*
X139166648Y-97957813D01*
X139166657Y-97957821D01*
X139166664Y-97957826D01*
X139166670Y-97957829D01*
X139166675Y-97957832D01*
X139279940Y-98015543D01*
X139281574Y-98015868D01*
X139283489Y-98016018D01*
X139373481Y-98030272D01*
X139986518Y-98030271D01*
X140080304Y-98015418D01*
X140141387Y-97984294D01*
X140141389Y-97984293D01*
X140191367Y-97958829D01*
X140192998Y-97958088D01*
X140193248Y-97957915D01*
X140193340Y-97957822D01*
X140193342Y-97957822D01*
X140283050Y-97868114D01*
X140290590Y-97853317D01*
X140322491Y-97790706D01*
X140334326Y-97775696D01*
X140335234Y-97774921D01*
X140338909Y-97771782D01*
X140344494Y-97767012D01*
X140376316Y-97755272D01*
X140496106Y-97755272D01*
X140514856Y-97759001D01*
X140524609Y-97763041D01*
X140525792Y-97763531D01*
X140548818Y-97783198D01*
X140552800Y-97789696D01*
X140554680Y-97793054D01*
X140613238Y-97907982D01*
X140613244Y-97907991D01*
X140613252Y-97908000D01*
X140708543Y-98003291D01*
X140708552Y-98003299D01*
X140708559Y-98003304D01*
X140820316Y-98060246D01*
X140828647Y-98064491D01*
X140928285Y-98080272D01*
X140928287Y-98080272D01*
X141495259Y-98080272D01*
X141495261Y-98080272D01*
X141594899Y-98064491D01*
X141662058Y-98030272D01*
X141713022Y-98004305D01*
X141714653Y-98003564D01*
X141714896Y-98003396D01*
X141714991Y-98003300D01*
X141714993Y-98003300D01*
X141810301Y-97907992D01*
X141830619Y-97868115D01*
X141830620Y-97868115D01*
X141862050Y-97806430D01*
X141866178Y-97798328D01*
X141872543Y-97788791D01*
X141875327Y-97785525D01*
X141884365Y-97774920D01*
X141910220Y-97759059D01*
X141911369Y-97758782D01*
X141922803Y-97757430D01*
X142036807Y-97757430D01*
X142055556Y-97761159D01*
X142066478Y-97765683D01*
X142089521Y-97785373D01*
X142095960Y-97795893D01*
X142097826Y-97799228D01*
X142153233Y-97907973D01*
X142153242Y-97907988D01*
X142153244Y-97907991D01*
X142153252Y-97908000D01*
X142248543Y-98003291D01*
X142248552Y-98003299D01*
X142248559Y-98003304D01*
X142360316Y-98060246D01*
X142368647Y-98064491D01*
X142468285Y-98080272D01*
X142468287Y-98080272D01*
X143035259Y-98080272D01*
X143035261Y-98080272D01*
X143134899Y-98064491D01*
X143202058Y-98030272D01*
X143253022Y-98004305D01*
X143254653Y-98003564D01*
X143254896Y-98003396D01*
X143254991Y-98003300D01*
X143254993Y-98003300D01*
X143350301Y-97907992D01*
X143370619Y-97868115D01*
X143370620Y-97868115D01*
X143402050Y-97806430D01*
X143406178Y-97798328D01*
X143412543Y-97788791D01*
X143415327Y-97785525D01*
X143424365Y-97774920D01*
X143450220Y-97759059D01*
X143451369Y-97758782D01*
X143462803Y-97757430D01*
X144270317Y-97757430D01*
X144289063Y-97761157D01*
X144293939Y-97763177D01*
X144320459Y-97789693D01*
X144320462Y-97827196D01*
X144320460Y-97827200D01*
X144318441Y-97832074D01*
X144307819Y-97847970D01*
X143294538Y-98861249D01*
X143294531Y-98861258D01*
X143251681Y-98935476D01*
X143236165Y-98993385D01*
X143236165Y-98993386D01*
X143229500Y-99018257D01*
X143229500Y-99491895D01*
X143225770Y-99510648D01*
X143218877Y-99527288D01*
X143208255Y-99543183D01*
X142963191Y-99788248D01*
X142947297Y-99798869D01*
X142930658Y-99805762D01*
X142911904Y-99809493D01*
X142468285Y-99809493D01*
X142398795Y-99820499D01*
X142372454Y-99824671D01*
X142370573Y-99824818D01*
X142368644Y-99825274D01*
X142368544Y-99825324D01*
X142248570Y-99886453D01*
X142248555Y-99886462D01*
X142248552Y-99886464D01*
X142248543Y-99886472D01*
X142153252Y-99981763D01*
X142153244Y-99981772D01*
X142153238Y-99981781D01*
X142095650Y-100094806D01*
X142089253Y-100104381D01*
X142078441Y-100117042D01*
X142052635Y-100132864D01*
X142051508Y-100133135D01*
X142040052Y-100134493D01*
X141927440Y-100134493D01*
X141908686Y-100130762D01*
X141897751Y-100126232D01*
X141874727Y-100106567D01*
X141870749Y-100100076D01*
X141868880Y-100096741D01*
X141810305Y-99981779D01*
X141810300Y-99981772D01*
X141810292Y-99981763D01*
X141715001Y-99886472D01*
X141714992Y-99886464D01*
X141714989Y-99886462D01*
X141714974Y-99886453D01*
X141595000Y-99825324D01*
X141594900Y-99825274D01*
X141592970Y-99824818D01*
X141591092Y-99824671D01*
X141564751Y-99820499D01*
X141495261Y-99809493D01*
X141495260Y-99809493D01*
X140928277Y-99809493D01*
X140912293Y-99812024D01*
X140893191Y-99811273D01*
X140878514Y-99807749D01*
X140855306Y-99794751D01*
X140376743Y-99316188D01*
X140366121Y-99300291D01*
X140359228Y-99283650D01*
X140355499Y-99264900D01*
X140355499Y-98848254D01*
X140340646Y-98754468D01*
X140283060Y-98641447D01*
X140283057Y-98641442D01*
X140283054Y-98641436D01*
X140283049Y-98641429D01*
X140283041Y-98641420D01*
X140193350Y-98551729D01*
X140193341Y-98551721D01*
X140193338Y-98551719D01*
X140193323Y-98551710D01*
X140080313Y-98494129D01*
X140080305Y-98494126D01*
X140080304Y-98494125D01*
X140076673Y-98493536D01*
X140076497Y-98493523D01*
X140060643Y-98491012D01*
X139986519Y-98479272D01*
X139986518Y-98479272D01*
X139569870Y-98479272D01*
X139551119Y-98475542D01*
X139534476Y-98468648D01*
X139518582Y-98458027D01*
X138705534Y-97644979D01*
X138694913Y-97629084D01*
X138689606Y-97616273D01*
X138687545Y-97584840D01*
X138705266Y-97518710D01*
X138705266Y-97386922D01*
X138705266Y-97386272D01*
X138704437Y-97383834D01*
X138693120Y-97341595D01*
X138672566Y-97264884D01*
X138671158Y-97259629D01*
X138629383Y-97187274D01*
X138605269Y-97145508D01*
X138605268Y-97145507D01*
X138605266Y-97145503D01*
X138512080Y-97052317D01*
X138512076Y-97052315D01*
X138512074Y-97052313D01*
X138397954Y-96986425D01*
X138397926Y-96986413D01*
X138397530Y-96986311D01*
X138270664Y-96952317D01*
X138270661Y-96952317D01*
X138270658Y-96952317D01*
X138138874Y-96952317D01*
X138138871Y-96952317D01*
X138138868Y-96952317D01*
X138012000Y-96986311D01*
X138011606Y-96986413D01*
X138011576Y-96986425D01*
X137895545Y-97053417D01*
X137892887Y-97056881D01*
X137808830Y-97140938D01*
X137805366Y-97143596D01*
X137738374Y-97259627D01*
X137738362Y-97259657D01*
X137738260Y-97260051D01*
X137704266Y-97386917D01*
X137550500Y-97386917D01*
X137550500Y-96509247D01*
X137554227Y-96490502D01*
X137554228Y-96490499D01*
X137557083Y-96483606D01*
X137583594Y-96457088D01*
X137590502Y-96454226D01*
X137609247Y-96450500D01*
X150395729Y-96450500D01*
X150414475Y-96454227D01*
G37*
%TD.AperFunction*%
%TD*%
%TA.AperFunction,Conductor*%
%TO.N,ANT*%
G36*
X148978982Y-97353574D02*
G01*
X148986011Y-97359120D01*
X148987500Y-97364832D01*
X148987500Y-97497025D01*
X148984073Y-97505298D01*
X148978856Y-97508319D01*
X148827239Y-97549343D01*
X148820636Y-97549198D01*
X148483764Y-97442039D01*
X148476919Y-97436266D01*
X148476162Y-97427343D01*
X148481935Y-97420498D01*
X148483702Y-97419760D01*
X148820550Y-97310846D01*
X148827326Y-97310721D01*
X148978982Y-97353574D01*
G37*
%TD.AperFunction*%
%TD*%
M02*
