M48
; DRILL file KiCad 10.0.5 date 2026-08-27T19:56:04
; FORMAT={-:-/ absolute / metric / decimal}
; #@! TF.CreationDate,2026-08-27T19:56:04+05:30
; #@! TF.GenerationSoftware,Kicad,Pcbnew,10.0.5
; #@! TF.FileFunction,Plated,1,2,PTH
FMAT,2
METRIC
; #@! TA.AperFunction,Plated,PTH,ViaDrill
T1C0.200
; #@! TA.AperFunction,Plated,PTH,ViaDrill
T2C0.300
%
G90
G05
T1
X144.889Y-104.668
X144.889Y-105.418
X145.297Y-104.339
X145.297Y-105.039
X145.297Y-105.739
X147.251Y-102.171
X147.774Y-101.417
X150.197Y-103.463
X150.2Y-99.717
X150.204Y-102.721
X150.204Y-104.221
X150.204Y-104.971
X150.204Y-105.721
X150.207Y-98.225
X150.207Y-98.975
X150.207Y-100.475
X150.207Y-101.225
X150.207Y-101.975
X150.209Y-96.9
T2
X141.99Y-97.249
X146.298Y-100.349
M30
