%TF.GenerationSoftware,KiCad,Pcbnew,10.0.5*%
%TF.CreationDate,2026-08-27T19:56:04+05:30*%
%TF.ProjectId,OpenDongle-CH592,4f70656e-446f-46e6-976c-652d43483539,rev?*%
%TF.SameCoordinates,Original*%
%TF.FileFunction,Soldermask,Top*%
%TF.FilePolarity,Negative*%
%FSLAX46Y46*%
G04 Gerber Fmt 4.6, Leading zero omitted, Abs format (unit mm)*
G04 Created by KiCad (PCBNEW 10.0.5) date 2026-08-27 19:56:04*
%MOMM*%
%LPD*%
G01*
G04 APERTURE LIST*
G04 Aperture macros list*
%AMRoundRect*
0 Rectangle with rounded corners*
0 $1 Rounding radius*
0 $2 $3 $4 $5 $6 $7 $8 $9 X,Y pos of 4 corners*
0 Add a 4 corners polygon primitive as box body*
4,1,4,$2,$3,$4,$5,$6,$7,$8,$9,$2,$3,0*
0 Add four circle primitives for the rounded corners*
1,1,$1+$1,$2,$3*
1,1,$1+$1,$4,$5*
1,1,$1+$1,$6,$7*
1,1,$1+$1,$8,$9*
0 Add four rect primitives between the rounded corners*
20,1,$1+$1,$2,$3,$4,$5,0*
20,1,$1+$1,$4,$5,$6,$7,0*
20,1,$1+$1,$6,$7,$8,$9,0*
20,1,$1+$1,$8,$9,$2,$3,0*%
G04 Aperture macros list end*
%ADD10C,0.000000*%
%ADD11RoundRect,0.225000X-0.225000X-0.250000X0.225000X-0.250000X0.225000X0.250000X-0.225000X0.250000X0*%
%ADD12RoundRect,0.225000X-0.250000X0.225000X-0.250000X-0.225000X0.250000X-0.225000X0.250000X0.225000X0*%
%ADD13RoundRect,0.050000X-0.375000X-0.050000X0.375000X-0.050000X0.375000X0.050000X-0.375000X0.050000X0*%
%ADD14RoundRect,0.050000X-0.050000X-0.375000X0.050000X-0.375000X0.050000X0.375000X-0.050000X0.375000X0*%
%ADD15R,1.650000X1.650000*%
%ADD16RoundRect,0.250000X0.450000X0.350000X-0.450000X0.350000X-0.450000X-0.350000X0.450000X-0.350000X0*%
%ADD17RoundRect,0.150000X0.150000X-0.512500X0.150000X0.512500X-0.150000X0.512500X-0.150000X-0.512500X0*%
%ADD18RoundRect,0.225000X0.250000X-0.225000X0.250000X0.225000X-0.250000X0.225000X-0.250000X-0.225000X0*%
G04 APERTURE END LIST*
D10*
%TO.C,AE2*%
G36*
X153255076Y-97505981D02*
G01*
X150455076Y-97505981D01*
X150455076Y-97355981D01*
X153255076Y-97355981D01*
X153255076Y-97505981D01*
G37*
G36*
X153255076Y-97055985D02*
G01*
X150800076Y-97055985D01*
X150800076Y-96755985D01*
X153255076Y-96755985D01*
X153255076Y-97055985D01*
G37*
G36*
X153255072Y-97955981D02*
G01*
X151355079Y-97955981D01*
X151355079Y-97805981D01*
X153255072Y-97805981D01*
X153255072Y-97955981D01*
G37*
G36*
X151505079Y-98255968D02*
G01*
X151355079Y-98255968D01*
X151355079Y-97805981D01*
X151505079Y-97805981D01*
X151505079Y-98255968D01*
G37*
G36*
X153255072Y-98255968D02*
G01*
X151355079Y-98255968D01*
X151355079Y-98105974D01*
X153255072Y-98105974D01*
X153255072Y-98255968D01*
G37*
G36*
X153255072Y-98555971D02*
G01*
X151355079Y-98555971D01*
X151355079Y-98405971D01*
X153255072Y-98405971D01*
X153255072Y-98555971D01*
G37*
G36*
X151505079Y-98855959D02*
G01*
X151355079Y-98855959D01*
X151355079Y-98405971D01*
X151505079Y-98405971D01*
X151505079Y-98855959D01*
G37*
G36*
X153255072Y-98855962D02*
G01*
X151355079Y-98855962D01*
X151355079Y-98705968D01*
X153255072Y-98705968D01*
X153255072Y-98855962D01*
G37*
G36*
X153255072Y-99155959D02*
G01*
X151355079Y-99155959D01*
X151355079Y-99005959D01*
X153255072Y-99005959D01*
X153255072Y-99155959D01*
G37*
G36*
X151505079Y-99455946D02*
G01*
X151355079Y-99455946D01*
X151355079Y-99005959D01*
X151505079Y-99005959D01*
X151505079Y-99455946D01*
G37*
G36*
X153255072Y-99455946D02*
G01*
X151355079Y-99455946D01*
X151355079Y-99305952D01*
X153255072Y-99305952D01*
X153255072Y-99455946D01*
G37*
G36*
X153255072Y-99755946D02*
G01*
X151355079Y-99755946D01*
X151355079Y-99605946D01*
X153255072Y-99605946D01*
X153255072Y-99755946D01*
G37*
G36*
X151505079Y-100055940D02*
G01*
X151355079Y-100055940D01*
X151355079Y-99605946D01*
X151505079Y-99605946D01*
X151505079Y-100055940D01*
G37*
G36*
X153255072Y-100055940D02*
G01*
X151355079Y-100055940D01*
X151355079Y-99905940D01*
X153255072Y-99905940D01*
X153255072Y-100055940D01*
G37*
G36*
X153255072Y-100355937D02*
G01*
X151355079Y-100355937D01*
X151355079Y-100205937D01*
X153255072Y-100205937D01*
X153255072Y-100355937D01*
G37*
G36*
X151505079Y-100655924D02*
G01*
X151355079Y-100655924D01*
X151355079Y-100205937D01*
X151505079Y-100205937D01*
X151505079Y-100655924D01*
G37*
G36*
X153255072Y-100655924D02*
G01*
X151355079Y-100655924D01*
X151355079Y-100505931D01*
X153255072Y-100505931D01*
X153255072Y-100655924D01*
G37*
G36*
X153255072Y-100955924D02*
G01*
X151355079Y-100955924D01*
X151355079Y-100805924D01*
X153255072Y-100805924D01*
X153255072Y-100955924D01*
G37*
G36*
X151505079Y-101255912D02*
G01*
X151355079Y-101255912D01*
X151355079Y-100805924D01*
X151505079Y-100805924D01*
X151505079Y-101255912D01*
G37*
G36*
X153255072Y-101255912D02*
G01*
X151355079Y-101255912D01*
X151355079Y-101105918D01*
X153255072Y-101105918D01*
X153255072Y-101255912D01*
G37*
G36*
X153255072Y-101555912D02*
G01*
X151355079Y-101555912D01*
X151355079Y-101405912D01*
X153255072Y-101405912D01*
X153255072Y-101555912D01*
G37*
G36*
X151505079Y-101855906D02*
G01*
X151355079Y-101855906D01*
X151355079Y-101405912D01*
X151505079Y-101405912D01*
X151505079Y-101855906D01*
G37*
G36*
X153255072Y-101855902D02*
G01*
X151355079Y-101855902D01*
X151355079Y-101705909D01*
X153255072Y-101705909D01*
X153255072Y-101855902D01*
G37*
G36*
X153255072Y-102155902D02*
G01*
X151355079Y-102155902D01*
X151355079Y-102005902D01*
X153255072Y-102005902D01*
X153255072Y-102155902D01*
G37*
G36*
X151505079Y-102455890D02*
G01*
X151355079Y-102455890D01*
X151355079Y-102005902D01*
X151505079Y-102005902D01*
X151505079Y-102455890D01*
G37*
G36*
X153255072Y-102455890D02*
G01*
X151355079Y-102455890D01*
X151355079Y-102305896D01*
X153255072Y-102305896D01*
X153255072Y-102455890D01*
G37*
G36*
X153255072Y-102755890D02*
G01*
X151355079Y-102755890D01*
X151355079Y-102605890D01*
X153255072Y-102605890D01*
X153255072Y-102755890D01*
G37*
G36*
X151505079Y-103055877D02*
G01*
X151355079Y-103055877D01*
X151355079Y-102605890D01*
X151505079Y-102605890D01*
X151505079Y-103055877D01*
G37*
G36*
X153255072Y-103055877D02*
G01*
X151355079Y-103055877D01*
X151355079Y-102905884D01*
X153255072Y-102905884D01*
X153255072Y-103055877D01*
G37*
G36*
X153255072Y-103355877D02*
G01*
X151355079Y-103355877D01*
X151355079Y-103205877D01*
X153255072Y-103205877D01*
X153255072Y-103355877D01*
G37*
G36*
X151505079Y-103655871D02*
G01*
X151355079Y-103655871D01*
X151355079Y-103205877D01*
X151505079Y-103205877D01*
X151505079Y-103655871D01*
G37*
G36*
X153255072Y-103655868D02*
G01*
X151355079Y-103655868D01*
X151355079Y-103505874D01*
X153255072Y-103505874D01*
X153255072Y-103655868D01*
G37*
G36*
X153255072Y-103955868D02*
G01*
X151355079Y-103955868D01*
X151355079Y-103805868D01*
X153255072Y-103805868D01*
X153255072Y-103955868D01*
G37*
G36*
X151505079Y-104255856D02*
G01*
X151355079Y-104255856D01*
X151355079Y-103805868D01*
X151505079Y-103805868D01*
X151505079Y-104255856D01*
G37*
G36*
X153255072Y-104255856D02*
G01*
X151355079Y-104255856D01*
X151355079Y-104105862D01*
X153255072Y-104105862D01*
X153255072Y-104255856D01*
G37*
G36*
X153255072Y-104555856D02*
G01*
X151355079Y-104555856D01*
X151355079Y-104405856D01*
X153255072Y-104405856D01*
X153255072Y-104555856D01*
G37*
G36*
X151505079Y-104855843D02*
G01*
X151355079Y-104855843D01*
X151355079Y-104405856D01*
X151505079Y-104405856D01*
X151505079Y-104855843D01*
G37*
G36*
X153255072Y-104855843D02*
G01*
X151355079Y-104855843D01*
X151355079Y-104705849D01*
X153255072Y-104705849D01*
X153255072Y-104855843D01*
G37*
G36*
X153255072Y-105155846D02*
G01*
X151355079Y-105155846D01*
X151355079Y-105005846D01*
X153255072Y-105005846D01*
X153255072Y-105155846D01*
G37*
G36*
X151505079Y-105455834D02*
G01*
X151355079Y-105455834D01*
X151355079Y-105005846D01*
X151505079Y-105005846D01*
X151505079Y-105455834D01*
G37*
G36*
X153255072Y-105455834D02*
G01*
X151355079Y-105455834D01*
X151355079Y-105305840D01*
X153255072Y-105305840D01*
X153255072Y-105455834D01*
G37*
G36*
X153255072Y-105755834D02*
G01*
X151355079Y-105755834D01*
X151355079Y-105605834D01*
X153255072Y-105605834D01*
X153255072Y-105755834D01*
G37*
G36*
X153255069Y-97955981D02*
G01*
X153105076Y-97955981D01*
X153105076Y-97355981D01*
X153255069Y-97355981D01*
X153255069Y-97955981D01*
G37*
G36*
X153255076Y-97505992D02*
G01*
X153105076Y-97505992D01*
X153105076Y-96755985D01*
X153255076Y-96755985D01*
X153255076Y-97505992D01*
G37*
G36*
X153255069Y-98555968D02*
G01*
X153105076Y-98555968D01*
X153105076Y-98105981D01*
X153255069Y-98105981D01*
X153255069Y-98555968D01*
G37*
G36*
X153255069Y-99155962D02*
G01*
X153105076Y-99155962D01*
X153105076Y-98705968D01*
X153255069Y-98705968D01*
X153255069Y-99155962D01*
G37*
G36*
X153255069Y-99755946D02*
G01*
X153105076Y-99755946D01*
X153105076Y-99305959D01*
X153255069Y-99305959D01*
X153255069Y-99755946D01*
G37*
G36*
X153255069Y-100355934D02*
G01*
X153105076Y-100355934D01*
X153105076Y-99905946D01*
X153255069Y-99905946D01*
X153255069Y-100355934D01*
G37*
G36*
X153255069Y-100955927D02*
G01*
X153105076Y-100955927D01*
X153105076Y-100505934D01*
X153255069Y-100505934D01*
X153255069Y-100955927D01*
G37*
G36*
X153255069Y-101555912D02*
G01*
X153105076Y-101555912D01*
X153105076Y-101105924D01*
X153255069Y-101105924D01*
X153255069Y-101555912D01*
G37*
G36*
X153255069Y-102155899D02*
G01*
X153105076Y-102155899D01*
X153105076Y-101705912D01*
X153255069Y-101705912D01*
X153255069Y-102155899D01*
G37*
G36*
X153255069Y-102755890D02*
G01*
X153105076Y-102755890D01*
X153105076Y-102305902D01*
X153255069Y-102305902D01*
X153255069Y-102755890D01*
G37*
G36*
X153255069Y-103355877D02*
G01*
X153105076Y-103355877D01*
X153105076Y-102905890D01*
X153255069Y-102905890D01*
X153255069Y-103355877D01*
G37*
G36*
X153255069Y-103955871D02*
G01*
X153105076Y-103955871D01*
X153105076Y-103505877D01*
X153255069Y-103505877D01*
X153255069Y-103955871D01*
G37*
G36*
X153255069Y-104555856D02*
G01*
X153105076Y-104555856D01*
X153105076Y-104105868D01*
X153255069Y-104105868D01*
X153255069Y-104555856D01*
G37*
G36*
X153255069Y-105155843D02*
G01*
X153105076Y-105155843D01*
X153105076Y-104705856D01*
X153255069Y-104705856D01*
X153255069Y-105155843D01*
G37*
G36*
X153255069Y-105755837D02*
G01*
X153105076Y-105755837D01*
X153105076Y-105305843D01*
X153255069Y-105305843D01*
X153255069Y-105755837D01*
G37*
%TD*%
D11*
%TO.C,C4*%
X145910000Y-97246844D03*
X147460000Y-97246844D03*
%TD*%
D12*
%TO.C,C5*%
X149160000Y-98265000D03*
X149160000Y-99815000D03*
%TD*%
D13*
%TO.C,U3*%
X144847692Y-99549320D03*
X144847692Y-99949320D03*
X144847692Y-100349320D03*
X144847692Y-100749320D03*
X144847692Y-101149320D03*
D14*
X145497692Y-101799320D03*
X145897692Y-101799320D03*
X146297692Y-101799320D03*
X146697692Y-101799320D03*
X147097692Y-101799320D03*
D13*
X147747692Y-101149320D03*
X147747692Y-100749320D03*
X147747692Y-100349320D03*
X147747692Y-99949320D03*
X147747692Y-99549320D03*
D14*
X147097692Y-98899320D03*
X146697692Y-98899320D03*
X146297692Y-98899320D03*
X145897692Y-98899320D03*
X145497692Y-98899320D03*
D15*
X146297692Y-100349320D03*
%TD*%
D16*
%TO.C,Y1*%
X148812892Y-103400000D03*
X146612892Y-103400000D03*
X146612892Y-105100000D03*
X148812892Y-105100000D03*
%TD*%
D11*
%TO.C,C1*%
X139221424Y-97246844D03*
X140771424Y-97246844D03*
%TD*%
D17*
%TO.C,U2*%
X139820000Y-101157500D03*
X141720000Y-101157500D03*
X140770000Y-98882500D03*
%TD*%
D18*
%TO.C,C2*%
X143216559Y-101154114D03*
X143216559Y-99604114D03*
%TD*%
M02*
