%TF.GenerationSoftware,KiCad,Pcbnew,10.0.5*%
%TF.CreationDate,2026-08-27T19:56:04+05:30*%
%TF.ProjectId,OpenDongle-CH592,4f70656e-446f-46e6-976c-652d43483539,rev?*%
%TF.SameCoordinates,Original*%
%TF.FileFunction,Copper,L1,Top*%
%TF.FilePolarity,Positive*%
%FSLAX46Y46*%
G04 Gerber Fmt 4.6, Leading zero omitted, Abs format (unit mm)*
G04 Created by KiCad (PCBNEW 10.0.5) date 2026-08-27 19:56:04*
%MOMM*%
%LPD*%
G01*
G04 APERTURE LIST*
G04 Aperture macros list*
%AMRoundRect*
0 Rectangle with rounded corners*
0 $1 Rounding radius*
0 $2 $3 $4 $5 $6 $7 $8 $9 X,Y pos of 4 corners*
0 Add a 4 corners polygon primitive as box body*
4,1,4,$2,$3,$4,$5,$6,$7,$8,$9,$2,$3,0*
0 Add four circle primitives for the rounded corners*
1,1,$1+$1,$2,$3*
1,1,$1+$1,$4,$5*
1,1,$1+$1,$6,$7*
1,1,$1+$1,$8,$9*
0 Add four rect primitives between the rounded corners*
20,1,$1+$1,$2,$3,$4,$5,0*
20,1,$1+$1,$4,$5,$6,$7,0*
20,1,$1+$1,$6,$7,$8,$9,0*
20,1,$1+$1,$8,$9,$2,$3,0*%
%AMFreePoly0*
4,1,173,0.075009,2.749996,0.375000,2.749996,0.375000,2.750000,0.525003,2.750000,0.525003,1.000003,0.674993,1.000003,0.674993,2.750000,0.824990,2.750000,0.824990,2.749996,0.974990,2.749996,0.974990,2.750000,1.124990,2.750000,1.124990,1.000003,1.274987,1.000003,1.274987,2.750000,1.424984,2.750000,1.424984,2.749996,1.574978,2.749996,1.574978,2.750000,1.724981,2.750000,
1.724981,1.000003,1.874971,1.000003,1.874971,2.750000,2.024968,2.750000,2.024968,2.749996,2.174965,2.749996,2.174965,2.750000,2.324968,2.750000,2.324968,1.000003,2.474959,1.000003,2.474959,2.750000,2.624959,2.750000,2.624959,2.749996,2.774956,2.749996,2.774956,2.750000,2.924956,2.750000,2.924956,1.000003,3.074950,1.000003,3.074950,2.750000,3.224946,2.750000,
3.224946,2.749996,3.374943,2.749996,3.374943,2.750000,3.524946,2.750000,3.524946,1.000003,3.674937,1.000003,3.674937,2.750000,3.824934,2.750000,3.824934,2.749996,3.974931,2.749996,3.974931,2.750000,4.124934,2.750000,4.124934,1.000003,4.274928,1.000003,4.274928,2.750000,4.424925,2.750000,4.424925,2.749996,4.574921,2.749996,4.574921,2.750000,4.724921,2.750000,
4.724921,1.000003,4.874915,1.000003,4.874915,2.750000,5.024912,2.750000,5.024912,2.749996,5.174909,2.749996,5.174909,2.750000,5.324912,2.750000,5.324912,1.000003,5.474903,1.000003,5.474903,2.750000,5.624900,2.750000,5.624900,2.749996,5.774896,2.749996,5.774896,2.750000,5.924900,2.750000,5.924900,1.000003,6.074893,1.000003,6.074893,2.750000,6.224890,2.750000,
6.224890,2.749996,6.374887,2.749996,6.374887,2.750000,6.524890,2.750000,6.524890,1.000003,6.674881,1.000003,6.674881,2.750000,6.824878,2.750000,6.824878,2.749996,6.974875,2.749996,6.974875,2.750000,7.124878,2.750000,7.124878,1.000003,7.274868,1.000003,7.274868,2.750000,7.424865,2.750000,7.424865,2.749996,7.574865,2.749996,7.574865,2.750000,7.724865,2.750000,
7.724865,1.000003,7.874859,1.000003,7.874859,2.750000,8.024856,2.750000,8.024856,2.749996,8.174853,2.749996,8.174853,2.750000,8.324856,2.750000,8.324856,0.850003,8.174853,0.850003,8.174853,2.600000,8.024856,2.600000,8.024856,0.850003,7.574865,0.850003,7.574865,2.600000,7.424865,2.600000,7.424865,0.850003,6.974875,0.850003,6.974875,2.600000,6.824878,2.600000,
6.824878,0.850003,6.374887,0.850003,6.374887,2.600000,6.224890,2.600000,6.224890,0.850003,5.774896,0.850003,5.774896,2.600000,5.624900,2.600000,5.624900,0.850003,5.174909,0.850003,5.174909,2.600000,5.024912,2.600000,5.024912,0.850003,4.574921,0.850003,4.574921,2.600000,4.424925,2.600000,4.424925,0.850003,3.974931,0.850003,3.974931,2.600000,3.824934,2.600000,
3.824934,0.850003,3.374943,0.850003,3.374943,2.600000,3.224946,2.600000,3.224946,0.850003,2.774956,0.850003,2.774956,2.600000,2.624959,2.600000,2.624959,0.850003,2.174965,0.850003,2.174965,2.600000,2.024968,2.600000,2.024968,0.850003,1.574978,0.850003,1.574978,2.600000,1.424984,2.600000,1.424984,0.850003,0.974990,0.850003,0.974990,2.600000,0.824990,2.600000,
0.824990,0.850003,0.375000,0.850003,0.375000,2.600000,0.075009,2.600000,0.075009,2.599999,0.075000,2.599999,0.075000,-0.075000,-0.075000,-0.075000,-0.075000,2.599999,-0.674998,2.599999,-0.674998,2.750002,0.075009,2.750002,0.075009,2.749996,0.075009,2.749996,$1*%
%AMFreePoly1*
4,1,5,0.150000,-0.150000,-0.150000,-0.150000,-0.150000,2.750000,0.150000,2.750000,0.150000,-0.150000,0.150000,-0.150000,$1*%
G04 Aperture macros list end*
%TA.AperFunction,SMDPad,CuDef*%
%ADD10RoundRect,0.225000X-0.225000X-0.250000X0.225000X-0.250000X0.225000X0.250000X-0.225000X0.250000X0*%
%TD*%
%TA.AperFunction,SMDPad,CuDef*%
%ADD11RoundRect,0.225000X-0.250000X0.225000X-0.250000X-0.225000X0.250000X-0.225000X0.250000X0.225000X0*%
%TD*%
%TA.AperFunction,SMDPad,CuDef*%
%ADD12RoundRect,0.050000X-0.375000X-0.050000X0.375000X-0.050000X0.375000X0.050000X-0.375000X0.050000X0*%
%TD*%
%TA.AperFunction,SMDPad,CuDef*%
%ADD13RoundRect,0.050000X-0.050000X-0.375000X0.050000X-0.375000X0.050000X0.375000X-0.050000X0.375000X0*%
%TD*%
%TA.AperFunction,HeatsinkPad*%
%ADD14R,1.650000X1.650000*%
%TD*%
%TA.AperFunction,SMDPad,CuDef*%
%ADD15RoundRect,0.250000X0.450000X0.350000X-0.450000X0.350000X-0.450000X-0.350000X0.450000X-0.350000X0*%
%TD*%
%TA.AperFunction,SMDPad,CuDef*%
%ADD16RoundRect,0.150000X0.150000X-0.512500X0.150000X0.512500X-0.150000X0.512500X-0.150000X-0.512500X0*%
%TD*%
%TA.AperFunction,SMDPad,CuDef*%
%ADD17FreePoly0,270.000000*%
%TD*%
%TA.AperFunction,SMDPad,CuDef*%
%ADD18FreePoly1,270.000000*%
%TD*%
%TA.AperFunction,SMDPad,CuDef*%
%ADD19RoundRect,0.225000X0.250000X-0.225000X0.250000X0.225000X-0.250000X0.225000X-0.250000X-0.225000X0*%
%TD*%
%TA.AperFunction,ViaPad*%
%ADD20C,0.500000*%
%TD*%
%TA.AperFunction,ViaPad*%
%ADD21C,0.600000*%
%TD*%
%TA.AperFunction,Conductor*%
%ADD22C,0.200000*%
%TD*%
%TA.AperFunction,Conductor*%
%ADD23C,0.150000*%
%TD*%
G04 APERTURE END LIST*
D10*
%TO.P,C4,1*%
%TO.N,VDC*%
X145910000Y-97246844D03*
%TO.P,C4,2*%
%TO.N,GND*%
X147460000Y-97246844D03*
%TD*%
D11*
%TO.P,C5,1*%
%TO.N,GND*%
X149160000Y-98265000D03*
%TO.P,C5,2*%
%TO.N,Net-(U3-VINTA)*%
X149160000Y-99815000D03*
%TD*%
D12*
%TO.P,U3,1,PA11/X32KO/TMR2_1*%
%TO.N,unconnected-(U3-PA11{slash}X32KO{slash}TMR2-Pad1)*%
X144847692Y-99549320D03*
%TO.P,U3,2,PA10/X32KI/TMR1_2*%
%TO.N,unconnected-(U3-PA10{slash}X32KI{slash}TMR1-Pad2)*%
X144847692Y-99949320D03*
%TO.P,U3,3,VDCID_3*%
%TO.N,VDC*%
X144847692Y-100349320D03*
%TO.P,U3,4,VSW_4*%
X144847692Y-100749320D03*
%TO.P,U3,5,VIO33/VDD33_5*%
%TO.N,+3.3V*%
X144847692Y-101149320D03*
D13*
%TO.P,U3,6,PB15/TCK/MISO_/SCL_6*%
%TO.N,GND*%
X145497692Y-101799320D03*
%TO.P,U3,7,PB14/TIO/MOSI_/SDA/PWM10_7*%
%TO.N,unconnected-(U3-PB14{slash}TIO{slash}MOSI_{slash}SDA{slash}PWM10-Pad7)*%
X145897692Y-101799320D03*
%TO.P,U3,8,PB13/SCK0_/TXD1__8*%
%TO.N,unconnected-(U3-PB13{slash}SCK0_{slash}TXD1_-Pad8)*%
X146297692Y-101799320D03*
%TO.P,U3,9,PB12/SCS_/RXD1__9*%
%TO.N,unconnected-(U3-PB12{slash}SCS_{slash}RXD1_-Pad9)*%
X146697692Y-101799320D03*
%TO.P,U3,10,PB11/UD+/TMR2__10*%
%TO.N,D+*%
X147097692Y-101799320D03*
D12*
%TO.P,U3,11,PB10/UD-/TMR1__11*%
%TO.N,D-*%
X147747692Y-101149320D03*
%TO.P,U3,12,X32MO_12*%
%TO.N,X32MO*%
X147747692Y-100749320D03*
%TO.P,U3,13,X32MI_13*%
%TO.N,X32MI*%
X147747692Y-100349320D03*
%TO.P,U3,14,VINTA_14*%
%TO.N,Net-(U3-VINTA)*%
X147747692Y-99949320D03*
%TO.P,U3,15,ANT_15*%
%TO.N,ANT*%
X147747692Y-99549320D03*
D13*
%TO.P,U3,16,VDCIA_16*%
%TO.N,VDC*%
X147097692Y-98899320D03*
%TO.P,U3,17,PA15/MISO/RXD0_/AIN5_17*%
%TO.N,unconnected-(U3-PA15{slash}MISO{slash}RXD0_{slash}AIN5-Pad17)*%
X146697692Y-98899320D03*
%TO.P,U3,18,PA14/MOSI/TXD0_/AIN4_18*%
%TO.N,unconnected-(U3-PA14{slash}MOSI{slash}TXD0_{slash}AIN4-Pad18)*%
X146297692Y-98899320D03*
%TO.P,U3,19,PA13/SCK0/PWM5/AIN3_19*%
%TO.N,unconnected-(U3-PA13{slash}SCK0{slash}PWM5{slash}AIN3-Pad19)*%
X145897692Y-98899320D03*
%TO.P,U3,20,PA12/SCS/PWM4/AIN2_20*%
%TO.N,unconnected-(U3-PA12{slash}SCS{slash}PWM4{slash}AIN2-Pad20)*%
X145497692Y-98899320D03*
D14*
%TO.P,U3,21,GND_21*%
%TO.N,GND*%
X146297692Y-100349320D03*
%TD*%
D15*
%TO.P,Y1,1,1_1*%
%TO.N,X32MI*%
X148812892Y-103400000D03*
%TO.P,Y1,2,G_2*%
%TO.N,GND*%
X146612892Y-103400000D03*
%TO.P,Y1,3,3_3*%
%TO.N,X32MO*%
X146612892Y-105100000D03*
%TO.P,Y1,4,G_4*%
%TO.N,GND*%
X148812892Y-105100000D03*
%TD*%
D10*
%TO.P,C1,1*%
%TO.N,GND*%
X139221424Y-97246844D03*
%TO.P,C1,2*%
%TO.N,VCC*%
X140771424Y-97246844D03*
%TD*%
D16*
%TO.P,U2,1,GND_1*%
%TO.N,GND*%
X139820000Y-101157500D03*
%TO.P,U2,2,VO_2*%
%TO.N,+3.3V*%
X141720000Y-101157500D03*
%TO.P,U2,3,VI_3*%
%TO.N,VCC*%
X140770000Y-98882500D03*
%TD*%
D17*
%TO.P,AE2,1,FEED_1*%
%TO.N,ANT*%
X150505076Y-97430981D03*
D18*
%TO.P,AE2,2,PCB_Trace_2*%
%TO.N,GND*%
X150505076Y-96905985D03*
%TD*%
D19*
%TO.P,C2,1*%
%TO.N,+3.3V*%
X143216559Y-101154114D03*
%TO.P,C2,2*%
%TO.N,GND*%
X143216559Y-99604114D03*
%TD*%
D20*
%TO.N,GND*%
X145297120Y-104339194D03*
X150204042Y-104221484D03*
X150206923Y-98224871D03*
X150206923Y-100474871D03*
X150204042Y-104971484D03*
X145297120Y-105039194D03*
X144889497Y-104667709D03*
X150204042Y-105721484D03*
X150206923Y-98974871D03*
X150208802Y-96900000D03*
X150199803Y-99716612D03*
X145297120Y-105739194D03*
X144889497Y-105417709D03*
D21*
X146297692Y-100349320D03*
D20*
X150206923Y-101974871D03*
X150206923Y-101224871D03*
X150204042Y-102721484D03*
X150196922Y-103463225D03*
%TO.N,D+*%
X147250827Y-102171349D03*
%TO.N,D-*%
X147773823Y-101416718D03*
D21*
%TO.N,VCC*%
X141990465Y-97249375D03*
%TD*%
%TO.N,VDC*%
D22*
X147097692Y-98377960D02*
X145966576Y-97246844D01*
X144122692Y-100145680D02*
X144326332Y-100349320D01*
X145966576Y-97246844D02*
X145910000Y-97246844D01*
X145989732Y-97270000D02*
X145910000Y-97270000D01*
X144847692Y-100749320D02*
X144847692Y-100349320D01*
X144326332Y-100349320D02*
X144847692Y-100349320D01*
X145910000Y-97270000D02*
X145910000Y-97246844D01*
X147097692Y-98899320D02*
X147097692Y-98377960D01*
X144122692Y-99057308D02*
X144122692Y-100145680D01*
X144122692Y-99057308D02*
X145910000Y-97270000D01*
%TO.N,Net-(U3-VINTA)*%
X149025680Y-99949320D02*
X149160000Y-99815000D01*
X147747692Y-99949320D02*
X149025680Y-99949320D01*
%TO.N,+3.3V*%
X144822898Y-101154114D02*
X144827692Y-101149320D01*
X141720000Y-101157500D02*
X143213173Y-101157500D01*
X143216559Y-101154114D02*
X144842898Y-101154114D01*
X144842898Y-101154114D02*
X144847692Y-101149320D01*
X143313173Y-101157500D02*
X143316559Y-101154114D01*
%TO.N,X32MO*%
X148472692Y-100952960D02*
X148472692Y-102155456D01*
X148472692Y-102155456D02*
X147612892Y-103015256D01*
X147612892Y-104100000D02*
X146612892Y-105100000D01*
X147747692Y-100749320D02*
X148269052Y-100749320D01*
X148269052Y-100749320D02*
X148472692Y-100952960D01*
X147612892Y-103015256D02*
X147612892Y-104100000D01*
%TO.N,X32MI*%
X148223869Y-103329023D02*
X148202892Y-103350000D01*
X148872692Y-100787275D02*
X148872692Y-103340200D01*
X148434738Y-100349320D02*
X148872692Y-100787275D01*
X148360000Y-102972892D02*
X148212892Y-103120000D01*
X147747692Y-100349320D02*
X148434738Y-100349320D01*
X148872692Y-103340200D02*
X148812892Y-103400000D01*
X148350000Y-103202892D02*
X148202892Y-103350000D01*
%TO.N,ANT*%
D23*
X147747692Y-98488966D02*
X147747692Y-99549320D01*
X149511416Y-97430981D02*
X149510000Y-97432397D01*
X149510000Y-97432397D02*
X148804261Y-97432397D01*
X148804261Y-97432397D02*
X147747692Y-98488966D01*
X150505076Y-97430981D02*
X149511416Y-97430981D01*
%TO.N,VCC*%
D22*
X141990465Y-97249375D02*
X140773955Y-97249375D01*
X140870000Y-97248268D02*
X140871424Y-97246844D01*
X140770000Y-98882500D02*
X140770000Y-97248268D01*
X140873955Y-97249375D02*
X140871424Y-97246844D01*
%TD*%
%TA.AperFunction,Conductor*%
%TO.N,GND*%
G36*
X140388209Y-96504227D02*
G01*
X140393085Y-96506247D01*
X140419605Y-96532763D01*
X140419608Y-96570266D01*
X140419594Y-96570299D01*
X140419350Y-96570887D01*
X140396338Y-96595765D01*
X140293217Y-96648307D01*
X140293202Y-96648316D01*
X140293194Y-96648323D01*
X140197903Y-96743614D01*
X140197895Y-96743623D01*
X140197893Y-96743626D01*
X140197884Y-96743641D01*
X140136755Y-96863615D01*
X140136705Y-96863715D01*
X140136249Y-96865644D01*
X140136101Y-96867525D01*
X140120924Y-96963356D01*
X140120924Y-97530332D01*
X140129249Y-97582895D01*
X140136102Y-97626162D01*
X140136249Y-97628042D01*
X140136705Y-97629971D01*
X140136755Y-97630071D01*
X140197884Y-97750045D01*
X140197893Y-97750060D01*
X140197895Y-97750063D01*
X140197903Y-97750072D01*
X140293194Y-97845363D01*
X140293203Y-97845371D01*
X140293210Y-97845376D01*
X140371168Y-97885097D01*
X140384127Y-97891700D01*
X140399184Y-97904329D01*
X140413297Y-97906562D01*
X140413298Y-97906563D01*
X140413297Y-97906563D01*
X140418530Y-97907391D01*
X140436467Y-97914006D01*
X140444722Y-97919063D01*
X140465727Y-97945702D01*
X140467101Y-97949930D01*
X140469500Y-97965074D01*
X140469500Y-98013097D01*
X140468528Y-98017982D01*
X140469025Y-98019901D01*
X140467698Y-98022155D01*
X140465770Y-98031849D01*
X140460707Y-98044072D01*
X140436959Y-98069341D01*
X140413517Y-98080801D01*
X140413514Y-98080803D01*
X140330804Y-98163513D01*
X140330801Y-98163518D01*
X140279517Y-98268421D01*
X140279430Y-98268596D01*
X140279427Y-98268605D01*
X140275223Y-98297462D01*
X140269500Y-98336738D01*
X140269500Y-99428261D01*
X140278736Y-99491654D01*
X140279427Y-99496393D01*
X140279430Y-99496402D01*
X140279472Y-99496486D01*
X140293324Y-99524820D01*
X140330802Y-99601483D01*
X140413517Y-99684198D01*
X140518607Y-99735573D01*
X140566879Y-99742605D01*
X140566881Y-99742606D01*
X140566882Y-99742606D01*
X140573502Y-99743570D01*
X140586738Y-99745500D01*
X140586740Y-99745500D01*
X140953259Y-99745500D01*
X140953262Y-99745500D01*
X140963658Y-99743984D01*
X140970592Y-99742974D01*
X140970592Y-99742973D01*
X141021393Y-99735573D01*
X141126483Y-99684198D01*
X141209198Y-99601483D01*
X141260573Y-99496393D01*
X141270500Y-99428260D01*
X141270500Y-98336740D01*
X141269941Y-98332910D01*
X141269943Y-98332905D01*
X141269941Y-98332906D01*
X141267606Y-98316884D01*
X141267606Y-98316881D01*
X141260573Y-98268608D01*
X141260573Y-98268606D01*
X141238189Y-98222820D01*
X141209198Y-98163517D01*
X141126483Y-98080802D01*
X141126482Y-98080801D01*
X141126479Y-98080799D01*
X141126447Y-98080783D01*
X141106733Y-98071145D01*
X141091523Y-98059556D01*
X141082768Y-98049640D01*
X141070500Y-98017209D01*
X141070500Y-97967512D01*
X141074229Y-97948764D01*
X141077933Y-97939820D01*
X141100957Y-97914910D01*
X141104926Y-97912888D01*
X141119501Y-97908154D01*
X141129550Y-97906563D01*
X141194446Y-97873496D01*
X141194448Y-97873495D01*
X141247669Y-97846379D01*
X141249300Y-97845638D01*
X141249550Y-97845465D01*
X141249642Y-97845372D01*
X141249644Y-97845372D01*
X141344952Y-97750064D01*
X141344956Y-97750057D01*
X141404847Y-97632514D01*
X141406066Y-97630431D01*
X141406175Y-97630188D01*
X141406593Y-97628094D01*
X141406744Y-97626175D01*
X141410757Y-97600835D01*
X141417375Y-97582897D01*
X141422433Y-97574643D01*
X141449074Y-97553645D01*
X141451170Y-97552964D01*
X141453306Y-97552271D01*
X141468441Y-97549875D01*
X141553108Y-97549875D01*
X141571859Y-97553605D01*
X141588498Y-97560497D01*
X141604395Y-97571119D01*
X141683151Y-97649875D01*
X141683155Y-97649877D01*
X141683156Y-97649878D01*
X141724922Y-97673992D01*
X141784434Y-97708352D01*
X141797276Y-97715766D01*
X141797278Y-97715766D01*
X141797279Y-97715767D01*
X141850596Y-97730053D01*
X141921487Y-97749048D01*
X141923921Y-97749875D01*
X142056360Y-97749875D01*
X142063154Y-97749875D01*
X142069040Y-97746476D01*
X142183651Y-97715767D01*
X142183655Y-97715765D01*
X142199735Y-97706481D01*
X142297779Y-97649875D01*
X142390965Y-97556689D01*
X142456857Y-97442561D01*
X142487566Y-97327950D01*
X142490965Y-97322064D01*
X142490965Y-97182829D01*
X142490134Y-97180383D01*
X142456957Y-97056564D01*
X142456864Y-97056208D01*
X142456857Y-97056190D01*
X142456856Y-97056186D01*
X142403260Y-96963357D01*
X142390965Y-96942061D01*
X142297779Y-96848875D01*
X142297775Y-96848873D01*
X142297773Y-96848871D01*
X142183653Y-96782983D01*
X142183625Y-96782971D01*
X142183229Y-96782869D01*
X142056363Y-96748875D01*
X142056360Y-96748875D01*
X142056357Y-96748875D01*
X141924573Y-96748875D01*
X141924570Y-96748875D01*
X141924567Y-96748875D01*
X141797699Y-96782869D01*
X141797305Y-96782971D01*
X141797275Y-96782983D01*
X141681244Y-96849975D01*
X141678586Y-96853439D01*
X141604395Y-96927630D01*
X141588501Y-96938251D01*
X141571862Y-96945144D01*
X141553108Y-96948875D01*
X141471228Y-96948875D01*
X141452474Y-96945144D01*
X141443531Y-96941439D01*
X141418629Y-96918422D01*
X141418188Y-96917558D01*
X141416609Y-96914458D01*
X141411870Y-96899878D01*
X141406143Y-96863717D01*
X141364949Y-96782869D01*
X141344962Y-96743641D01*
X141344959Y-96743636D01*
X141344956Y-96743630D01*
X141344951Y-96743623D01*
X141344943Y-96743614D01*
X141249652Y-96648323D01*
X141249643Y-96648315D01*
X141249634Y-96648309D01*
X141150078Y-96597584D01*
X141135065Y-96585750D01*
X141131638Y-96581738D01*
X141120047Y-96546072D01*
X141137069Y-96512657D01*
X141137613Y-96512192D01*
X141169381Y-96500500D01*
X145508039Y-96500500D01*
X145526785Y-96504227D01*
X145531661Y-96506247D01*
X145558181Y-96532763D01*
X145558184Y-96570266D01*
X145558170Y-96570299D01*
X145557926Y-96570887D01*
X145534914Y-96595765D01*
X145431793Y-96648307D01*
X145431778Y-96648316D01*
X145431770Y-96648323D01*
X145336479Y-96743614D01*
X145336471Y-96743623D01*
X145336469Y-96743626D01*
X145336460Y-96743641D01*
X145275331Y-96863615D01*
X145275281Y-96863715D01*
X145274825Y-96865644D01*
X145274678Y-96867525D01*
X145264067Y-96934522D01*
X145259500Y-96963356D01*
X145259500Y-97465485D01*
X145255770Y-97484238D01*
X145248877Y-97500878D01*
X145238255Y-97516773D01*
X143886796Y-98868232D01*
X143883333Y-98870889D01*
X143842671Y-98941314D01*
X143841002Y-98947546D01*
X143841001Y-98947550D01*
X143822192Y-99017742D01*
X143822192Y-100185245D01*
X143842557Y-100261247D01*
X143842659Y-100261643D01*
X143842669Y-100261667D01*
X143842670Y-100261670D01*
X143842671Y-100261671D01*
X143850162Y-100274645D01*
X143861569Y-100294401D01*
X143861570Y-100294403D01*
X143881506Y-100328935D01*
X143882084Y-100330009D01*
X143882181Y-100330140D01*
X143882232Y-100330191D01*
X144085872Y-100533831D01*
X144141821Y-100589780D01*
X144141824Y-100589781D01*
X144141827Y-100589784D01*
X144190204Y-100617714D01*
X144204579Y-100630320D01*
X144211893Y-100639852D01*
X144221991Y-100668065D01*
X144222152Y-100672943D01*
X144222152Y-100673011D01*
X144222162Y-100673290D01*
X144222192Y-100675000D01*
X144222192Y-100794866D01*
X144218463Y-100813615D01*
X144216151Y-100819200D01*
X144215608Y-100820510D01*
X144189090Y-100847028D01*
X144182195Y-100849884D01*
X144163445Y-100853614D01*
X143937002Y-100853614D01*
X143918248Y-100849883D01*
X143909305Y-100846178D01*
X143884403Y-100823161D01*
X143882384Y-100819200D01*
X143881303Y-100816938D01*
X143878658Y-100811019D01*
X143876278Y-100795988D01*
X143841598Y-100727924D01*
X143815091Y-100675900D01*
X143815086Y-100675893D01*
X143815078Y-100675884D01*
X143719787Y-100580593D01*
X143719778Y-100580585D01*
X143719775Y-100580583D01*
X143719760Y-100580574D01*
X143599786Y-100519445D01*
X143599686Y-100519395D01*
X143597756Y-100518939D01*
X143595878Y-100518792D01*
X143568779Y-100514500D01*
X143500047Y-100503614D01*
X143500046Y-100503614D01*
X142933072Y-100503614D01*
X142933071Y-100503614D01*
X142864339Y-100514500D01*
X142837240Y-100518792D01*
X142835359Y-100518939D01*
X142833430Y-100519395D01*
X142833330Y-100519445D01*
X142713356Y-100580574D01*
X142713341Y-100580583D01*
X142713338Y-100580585D01*
X142713329Y-100580593D01*
X142618038Y-100675884D01*
X142618030Y-100675893D01*
X142618028Y-100675896D01*
X142618019Y-100675911D01*
X142556839Y-100795985D01*
X142556838Y-100795987D01*
X142555247Y-100806039D01*
X142548628Y-100823979D01*
X142543571Y-100832230D01*
X142516944Y-100853224D01*
X142512715Y-100854599D01*
X142497564Y-100857000D01*
X142279247Y-100857000D01*
X142260499Y-100853271D01*
X142253601Y-100850414D01*
X142227085Y-100823898D01*
X142224227Y-100816997D01*
X142220500Y-100798252D01*
X142220500Y-100611736D01*
X142215372Y-100576543D01*
X142212798Y-100558880D01*
X142210573Y-100543607D01*
X142159198Y-100438517D01*
X142076483Y-100355802D01*
X142076482Y-100355801D01*
X142076480Y-100355800D01*
X142023938Y-100330114D01*
X142023938Y-100330113D01*
X141971620Y-100304537D01*
X141971401Y-100304429D01*
X141971396Y-100304427D01*
X141903264Y-100294500D01*
X141903262Y-100294500D01*
X141903260Y-100294500D01*
X141536740Y-100294500D01*
X141536738Y-100294500D01*
X141536736Y-100294500D01*
X141468605Y-100304427D01*
X141468590Y-100304432D01*
X141468423Y-100304515D01*
X141363518Y-100355801D01*
X141363513Y-100355804D01*
X141280804Y-100438513D01*
X141280801Y-100438518D01*
X141229515Y-100543423D01*
X141229432Y-100543590D01*
X141229427Y-100543605D01*
X141219500Y-100611736D01*
X141219500Y-101703262D01*
X141229427Y-101771393D01*
X141229430Y-101771404D01*
X141229515Y-101771575D01*
X141245667Y-101804614D01*
X141248721Y-101810860D01*
X141280802Y-101876483D01*
X141363517Y-101959198D01*
X141468607Y-102010573D01*
X141516879Y-102017605D01*
X141516881Y-102017606D01*
X141516882Y-102017606D01*
X141523502Y-102018570D01*
X141536738Y-102020500D01*
X141536740Y-102020500D01*
X141903259Y-102020500D01*
X141903262Y-102020500D01*
X141913658Y-102018984D01*
X141920592Y-102017974D01*
X141920592Y-102017973D01*
X141971393Y-102010573D01*
X142076483Y-101959198D01*
X142159198Y-101876483D01*
X142210573Y-101771393D01*
X142220500Y-101703260D01*
X142220500Y-101516747D01*
X142224227Y-101498002D01*
X142225078Y-101495947D01*
X142227083Y-101491106D01*
X142253594Y-101464588D01*
X142260502Y-101461726D01*
X142279247Y-101458000D01*
X142496652Y-101458000D01*
X142515403Y-101461729D01*
X142522287Y-101464581D01*
X142524346Y-101465434D01*
X142549250Y-101488452D01*
X142551268Y-101492411D01*
X142556008Y-101506994D01*
X142556838Y-101512233D01*
X142556839Y-101512237D01*
X142556840Y-101512244D01*
X142618022Y-101632320D01*
X142618028Y-101632330D01*
X142618030Y-101632333D01*
X142618038Y-101632342D01*
X142713329Y-101727633D01*
X142713338Y-101727641D01*
X142713345Y-101727646D01*
X142713351Y-101727649D01*
X142713356Y-101727652D01*
X142833383Y-101788808D01*
X142833428Y-101788831D01*
X142833429Y-101788831D01*
X142833433Y-101788833D01*
X142933071Y-101804614D01*
X142933073Y-101804614D01*
X143500045Y-101804614D01*
X143500047Y-101804614D01*
X143599685Y-101788833D01*
X143672857Y-101751550D01*
X143717825Y-101728637D01*
X143719440Y-101727905D01*
X143719684Y-101727736D01*
X143719777Y-101727642D01*
X143719779Y-101727642D01*
X143815087Y-101632334D01*
X143817438Y-101627721D01*
X143874990Y-101514766D01*
X143875892Y-101513225D01*
X143876277Y-101512241D01*
X143876276Y-101512241D01*
X143876278Y-101512240D01*
X143877333Y-101505574D01*
X143883951Y-101487636D01*
X143889009Y-101479382D01*
X143915650Y-101458384D01*
X143917746Y-101457703D01*
X143919882Y-101457010D01*
X143935017Y-101454614D01*
X144882458Y-101454614D01*
X144882461Y-101454614D01*
X144889601Y-101452700D01*
X144891035Y-101452315D01*
X144897296Y-101451070D01*
X144903627Y-101450237D01*
X144910011Y-101449820D01*
X145247366Y-101449820D01*
X145320432Y-101435286D01*
X145403293Y-101379921D01*
X145458658Y-101297060D01*
X145473192Y-101223994D01*
X145473192Y-101074646D01*
X145458658Y-101001580D01*
X145447341Y-100984643D01*
X145440026Y-100966984D01*
X145437541Y-100954494D01*
X145444854Y-100917718D01*
X145458658Y-100897060D01*
X145473192Y-100823994D01*
X145473192Y-100674646D01*
X145458658Y-100601580D01*
X145447341Y-100584643D01*
X145440026Y-100566984D01*
X145437541Y-100554494D01*
X145444854Y-100517718D01*
X145458658Y-100497060D01*
X145473192Y-100423994D01*
X145473192Y-100274646D01*
X145458658Y-100201580D01*
X145447341Y-100184643D01*
X145440026Y-100166984D01*
X145437541Y-100154494D01*
X145444854Y-100117718D01*
X145458658Y-100097060D01*
X145473192Y-100023994D01*
X145473192Y-99874646D01*
X145458658Y-99801580D01*
X145447341Y-99784643D01*
X145440026Y-99766984D01*
X145437541Y-99754494D01*
X145444854Y-99717718D01*
X145458658Y-99697060D01*
X145473192Y-99623994D01*
X145473192Y-99583567D01*
X145476919Y-99564822D01*
X145479775Y-99557926D01*
X145506286Y-99531408D01*
X145513194Y-99528546D01*
X145531939Y-99524820D01*
X145572366Y-99524820D01*
X145645432Y-99510286D01*
X145662365Y-99498970D01*
X145680029Y-99491654D01*
X145692517Y-99489170D01*
X145729299Y-99496486D01*
X145749952Y-99510286D01*
X145823018Y-99524820D01*
X145972366Y-99524820D01*
X146045432Y-99510286D01*
X146062365Y-99498970D01*
X146080029Y-99491654D01*
X146092517Y-99489170D01*
X146129299Y-99496486D01*
X146149952Y-99510286D01*
X146223018Y-99524820D01*
X146372366Y-99524820D01*
X146445432Y-99510286D01*
X146462365Y-99498970D01*
X146480029Y-99491654D01*
X146492517Y-99489170D01*
X146529299Y-99496486D01*
X146549952Y-99510286D01*
X146623018Y-99524820D01*
X146772366Y-99524820D01*
X146845432Y-99510286D01*
X146862365Y-99498970D01*
X146880029Y-99491654D01*
X146892517Y-99489170D01*
X146929299Y-99496486D01*
X146949952Y-99510286D01*
X147023018Y-99524820D01*
X147063445Y-99524820D01*
X147082191Y-99528547D01*
X147089085Y-99531403D01*
X147115605Y-99557918D01*
X147118463Y-99564819D01*
X147122192Y-99583567D01*
X147122192Y-99623997D01*
X147136725Y-99697059D01*
X147136726Y-99697060D01*
X147148039Y-99713992D01*
X147155354Y-99731654D01*
X147157839Y-99744146D01*
X147150523Y-99780928D01*
X147136725Y-99801580D01*
X147122192Y-99874642D01*
X147122192Y-100023997D01*
X147136725Y-100097059D01*
X147136726Y-100097060D01*
X147148039Y-100113992D01*
X147155354Y-100131654D01*
X147157839Y-100144146D01*
X147150523Y-100180928D01*
X147136725Y-100201580D01*
X147122192Y-100274642D01*
X147122192Y-100423997D01*
X147136725Y-100497059D01*
X147141105Y-100503614D01*
X147148039Y-100513992D01*
X147155354Y-100531654D01*
X147157839Y-100544146D01*
X147150524Y-100580928D01*
X147144607Y-100589784D01*
X147136725Y-100601580D01*
X147122192Y-100674642D01*
X147122192Y-100823997D01*
X147136725Y-100897059D01*
X147136726Y-100897060D01*
X147148039Y-100913992D01*
X147155354Y-100931654D01*
X147157839Y-100944146D01*
X147150523Y-100980928D01*
X147136725Y-101001580D01*
X147122192Y-101074642D01*
X147122192Y-101074645D01*
X147122192Y-101115072D01*
X147118463Y-101133823D01*
X147115608Y-101140716D01*
X147089090Y-101167234D01*
X147082195Y-101170090D01*
X147063445Y-101173820D01*
X147023014Y-101173820D01*
X146949952Y-101188353D01*
X146933018Y-101199668D01*
X146915353Y-101206984D01*
X146902862Y-101209468D01*
X146866083Y-101202152D01*
X146845431Y-101188353D01*
X146772369Y-101173820D01*
X146772366Y-101173820D01*
X146623017Y-101173820D01*
X146623014Y-101173820D01*
X146549952Y-101188353D01*
X146533018Y-101199668D01*
X146515353Y-101206984D01*
X146502862Y-101209468D01*
X146466083Y-101202152D01*
X146445431Y-101188353D01*
X146372369Y-101173820D01*
X146372366Y-101173820D01*
X146223017Y-101173820D01*
X146223014Y-101173820D01*
X146149952Y-101188353D01*
X146133018Y-101199668D01*
X146115353Y-101206984D01*
X146102862Y-101209468D01*
X146066083Y-101202152D01*
X146045431Y-101188353D01*
X145972369Y-101173820D01*
X145972366Y-101173820D01*
X145823017Y-101173820D01*
X145823014Y-101173820D01*
X145779176Y-101182539D01*
X145749950Y-101188353D01*
X145667090Y-101243717D01*
X145667089Y-101243718D01*
X145611725Y-101326578D01*
X145611725Y-101326580D01*
X145597192Y-101399642D01*
X145597192Y-102198997D01*
X145604135Y-102233900D01*
X145611725Y-102272060D01*
X145667089Y-102354920D01*
X145667090Y-102354921D01*
X145749952Y-102410286D01*
X145823018Y-102424820D01*
X145972366Y-102424820D01*
X146045432Y-102410286D01*
X146062365Y-102398970D01*
X146080029Y-102391654D01*
X146092517Y-102389170D01*
X146129299Y-102396486D01*
X146149952Y-102410286D01*
X146223018Y-102424820D01*
X146372366Y-102424820D01*
X146445432Y-102410286D01*
X146462365Y-102398970D01*
X146480029Y-102391654D01*
X146492517Y-102389170D01*
X146529299Y-102396486D01*
X146549952Y-102410286D01*
X146623018Y-102424820D01*
X146772366Y-102424820D01*
X146822200Y-102414906D01*
X146841316Y-102414906D01*
X146853099Y-102417249D01*
X146879295Y-102431799D01*
X146879895Y-102432440D01*
X146886573Y-102441442D01*
X146890338Y-102447962D01*
X146974214Y-102531838D01*
X147022120Y-102559497D01*
X147076937Y-102591146D01*
X147076941Y-102591148D01*
X147105585Y-102598823D01*
X147191513Y-102621849D01*
X147310138Y-102621849D01*
X147310140Y-102621849D01*
X147346665Y-102612061D01*
X147369830Y-102605854D01*
X147424713Y-102591148D01*
X147527440Y-102531838D01*
X147611316Y-102447962D01*
X147670626Y-102345235D01*
X147700459Y-102233899D01*
X147701327Y-102230660D01*
X147701327Y-102112037D01*
X147701327Y-102112035D01*
X147674995Y-102013767D01*
X147674994Y-102013766D01*
X147674139Y-102010573D01*
X147670626Y-101997463D01*
X147637652Y-101940352D01*
X147631508Y-101922249D01*
X147630820Y-101917021D01*
X147640528Y-101880797D01*
X147662168Y-101868301D01*
X147665698Y-101864744D01*
X147668348Y-101864733D01*
X147672999Y-101862048D01*
X147675076Y-101861774D01*
X147678228Y-101861359D01*
X147697311Y-101862608D01*
X147706168Y-101864982D01*
X147714511Y-101867218D01*
X147714512Y-101867218D01*
X147714514Y-101867218D01*
X147833133Y-101867218D01*
X147833134Y-101867218D01*
X147890420Y-101851867D01*
X147947709Y-101836517D01*
X148050436Y-101777207D01*
X148081656Y-101745986D01*
X148097544Y-101735370D01*
X148102422Y-101733349D01*
X148139924Y-101733349D01*
X148166443Y-101759868D01*
X148168462Y-101764742D01*
X148172192Y-101783494D01*
X148172192Y-102000941D01*
X148168462Y-102019694D01*
X148161569Y-102036334D01*
X148150947Y-102052229D01*
X147376996Y-102826180D01*
X147373533Y-102828837D01*
X147332871Y-102899262D01*
X147331202Y-102905494D01*
X147331201Y-102905498D01*
X147312392Y-102975690D01*
X147312392Y-103945485D01*
X147308662Y-103964238D01*
X147301769Y-103980878D01*
X147291147Y-103996773D01*
X147009665Y-104278255D01*
X146993771Y-104288876D01*
X146977132Y-104295769D01*
X146958378Y-104299500D01*
X146108606Y-104299500D01*
X146080475Y-104302139D01*
X146079061Y-104302205D01*
X146078192Y-104302352D01*
X145950031Y-104347197D01*
X145950016Y-104347203D01*
X145950001Y-104347210D01*
X145840740Y-104427848D01*
X145760102Y-104537109D01*
X145760095Y-104537124D01*
X145760089Y-104537139D01*
X145715244Y-104665300D01*
X145715097Y-104666170D01*
X145715031Y-104667582D01*
X145712392Y-104695714D01*
X145712392Y-105504284D01*
X145715031Y-105532416D01*
X145715097Y-105533829D01*
X145715244Y-105534698D01*
X145760089Y-105662859D01*
X145760095Y-105662874D01*
X145760102Y-105662889D01*
X145840740Y-105772150D01*
X145947061Y-105850618D01*
X145949345Y-105852583D01*
X145949629Y-105852716D01*
X145951604Y-105853453D01*
X145955798Y-105855190D01*
X145957864Y-105855541D01*
X146039092Y-105883964D01*
X146078193Y-105897646D01*
X146108626Y-105900500D01*
X146108636Y-105900500D01*
X147117148Y-105900500D01*
X147117158Y-105900500D01*
X147147591Y-105897646D01*
X147275774Y-105852793D01*
X147275879Y-105852716D01*
X147312196Y-105825912D01*
X147385042Y-105772150D01*
X147395707Y-105757699D01*
X147463508Y-105665830D01*
X147464705Y-105664441D01*
X147465610Y-105663111D01*
X147465819Y-105662499D01*
X147510538Y-105534699D01*
X147513392Y-105504266D01*
X147513392Y-104695734D01*
X147511118Y-104671496D01*
X147510981Y-104664191D01*
X147512144Y-104643357D01*
X147526419Y-104611441D01*
X147853352Y-104284511D01*
X147892914Y-104215988D01*
X147909993Y-104152244D01*
X147913392Y-104146358D01*
X147913392Y-104058253D01*
X147917119Y-104039508D01*
X147919138Y-104034632D01*
X147945652Y-104008112D01*
X147983153Y-104008106D01*
X147985433Y-104009050D01*
X148006108Y-104025223D01*
X148040742Y-104072152D01*
X148147061Y-104150618D01*
X148149345Y-104152583D01*
X148149629Y-104152716D01*
X148151604Y-104153453D01*
X148155801Y-104155192D01*
X148157867Y-104155543D01*
X148278193Y-104197646D01*
X148308626Y-104200500D01*
X148308636Y-104200500D01*
X149317148Y-104200500D01*
X149317158Y-104200500D01*
X149347591Y-104197646D01*
X149475774Y-104152793D01*
X149487918Y-104143830D01*
X149493700Y-104139564D01*
X149585040Y-104072152D01*
X149585040Y-104072150D01*
X149585042Y-104072150D01*
X149663515Y-103965822D01*
X149664705Y-103964439D01*
X149665610Y-103963112D01*
X149665819Y-103962499D01*
X149671772Y-103945485D01*
X149710538Y-103834699D01*
X149713392Y-103804266D01*
X149713392Y-102995734D01*
X149710538Y-102965301D01*
X149687431Y-102899266D01*
X149687430Y-102899264D01*
X149665689Y-102837128D01*
X149665687Y-102837123D01*
X149665683Y-102837114D01*
X149665681Y-102837111D01*
X149665680Y-102837109D01*
X149585042Y-102727848D01*
X149475781Y-102647210D01*
X149475766Y-102647203D01*
X149475751Y-102647197D01*
X149347589Y-102602352D01*
X149317178Y-102599501D01*
X149317177Y-102599500D01*
X149317167Y-102599500D01*
X149317158Y-102599500D01*
X149317157Y-102599500D01*
X149231939Y-102599500D01*
X149213191Y-102595771D01*
X149206293Y-102592914D01*
X149179777Y-102566398D01*
X149176919Y-102559497D01*
X149173192Y-102540752D01*
X149173192Y-100747712D01*
X149164535Y-100715409D01*
X149164534Y-100715407D01*
X149152713Y-100671286D01*
X149152712Y-100671284D01*
X149152712Y-100671283D01*
X149113151Y-100602763D01*
X149066428Y-100556040D01*
X149055806Y-100540144D01*
X149053786Y-100535269D01*
X149053786Y-100497767D01*
X149080303Y-100471249D01*
X149085186Y-100469226D01*
X149103931Y-100465500D01*
X149443486Y-100465500D01*
X149443488Y-100465500D01*
X149543126Y-100449719D01*
X149605699Y-100417836D01*
X149605701Y-100417835D01*
X149661245Y-100389535D01*
X149662876Y-100388794D01*
X149663125Y-100388622D01*
X149663218Y-100388528D01*
X149663220Y-100388528D01*
X149758528Y-100293220D01*
X149767993Y-100274645D01*
X149813545Y-100185243D01*
X149819719Y-100173126D01*
X149835500Y-100073488D01*
X149835500Y-99556512D01*
X149819719Y-99456874D01*
X149805140Y-99428261D01*
X149758532Y-99336786D01*
X149758527Y-99336779D01*
X149758519Y-99336770D01*
X149663228Y-99241479D01*
X149663219Y-99241471D01*
X149663216Y-99241469D01*
X149663201Y-99241460D01*
X149543227Y-99180331D01*
X149543127Y-99180281D01*
X149541197Y-99179825D01*
X149539319Y-99179678D01*
X149504574Y-99174175D01*
X149443488Y-99164500D01*
X149443487Y-99164500D01*
X148876513Y-99164500D01*
X148876512Y-99164500D01*
X148815426Y-99174175D01*
X148780681Y-99179678D01*
X148778800Y-99179825D01*
X148776871Y-99180281D01*
X148776771Y-99180331D01*
X148656797Y-99241460D01*
X148656782Y-99241469D01*
X148656779Y-99241471D01*
X148656770Y-99241479D01*
X148561479Y-99336770D01*
X148561471Y-99336779D01*
X148561469Y-99336782D01*
X148561460Y-99336797D01*
X148500331Y-99456771D01*
X148500281Y-99456871D01*
X148499593Y-99459785D01*
X148499678Y-99460681D01*
X148484500Y-99556512D01*
X148484500Y-99590072D01*
X148480771Y-99608823D01*
X148477916Y-99615716D01*
X148451397Y-99642235D01*
X148451390Y-99642238D01*
X148447591Y-99643811D01*
X148410105Y-99643812D01*
X148406305Y-99642239D01*
X148379781Y-99615728D01*
X148376919Y-99608817D01*
X148373192Y-99590072D01*
X148373192Y-99474644D01*
X148373157Y-99474359D01*
X148372962Y-99473494D01*
X148358658Y-99401580D01*
X148303293Y-99318718D01*
X148303292Y-99318717D01*
X148220432Y-99263353D01*
X148202165Y-99259719D01*
X148147369Y-99248820D01*
X148147366Y-99248820D01*
X148081939Y-99248820D01*
X148063191Y-99245091D01*
X148056293Y-99242234D01*
X148029777Y-99215718D01*
X148026919Y-99208817D01*
X148023192Y-99190072D01*
X148023192Y-98633124D01*
X148026921Y-98614374D01*
X148033815Y-98597730D01*
X148044433Y-98581839D01*
X148897134Y-97729139D01*
X148913026Y-97718520D01*
X148929671Y-97711625D01*
X148948420Y-97707897D01*
X149568693Y-97707897D01*
X149572792Y-97706870D01*
X149574362Y-97706715D01*
X149579150Y-97706481D01*
X150398112Y-97706481D01*
X150426468Y-97715519D01*
X150432969Y-97720132D01*
X150451698Y-97746529D01*
X150452547Y-97749476D01*
X150454462Y-97763041D01*
X150454417Y-102585148D01*
X150454387Y-105757700D01*
X150454396Y-105900500D01*
X150454399Y-105940749D01*
X150450669Y-105959506D01*
X150447814Y-105966398D01*
X150421304Y-105992912D01*
X150417780Y-105994372D01*
X150414412Y-105995767D01*
X150395655Y-105999500D01*
X137609247Y-105999500D01*
X137590499Y-105995771D01*
X137583601Y-105992914D01*
X137557085Y-105966398D01*
X137554768Y-105960805D01*
X137554227Y-105959497D01*
X137550500Y-105940752D01*
X137550500Y-96559247D01*
X137554227Y-96540502D01*
X137554231Y-96540492D01*
X137557083Y-96533606D01*
X137583594Y-96507088D01*
X137590502Y-96504226D01*
X137609247Y-96500500D01*
X140369463Y-96500500D01*
X140388209Y-96504227D01*
G37*
%TD.AperFunction*%
%TA.AperFunction,Conductor*%
G36*
X150414474Y-96504227D02*
G01*
X150421368Y-96507083D01*
X150425510Y-96511224D01*
X150426808Y-96511618D01*
X150427846Y-96513560D01*
X150447887Y-96533597D01*
X150450744Y-96540495D01*
X150454474Y-96559244D01*
X150454474Y-96648312D01*
X150454469Y-97094197D01*
X150450739Y-97112947D01*
X150447275Y-97121310D01*
X150423259Y-97146710D01*
X150418450Y-97149025D01*
X150402689Y-97153565D01*
X150398594Y-97154027D01*
X150398587Y-97154028D01*
X150389791Y-97155019D01*
X150387058Y-97155250D01*
X150384311Y-97155404D01*
X150381568Y-97155481D01*
X149456616Y-97155481D01*
X149456614Y-97155481D01*
X149456603Y-97155482D01*
X149456565Y-97155490D01*
X149451848Y-97156189D01*
X149447078Y-97156660D01*
X149442263Y-97156897D01*
X148749457Y-97156897D01*
X148692793Y-97180370D01*
X148685278Y-97183483D01*
X148657205Y-97195111D01*
X148657202Y-97195111D01*
X148648198Y-97198841D01*
X147591634Y-98255408D01*
X147591634Y-98255409D01*
X147514135Y-98332905D01*
X147510406Y-98341909D01*
X147510405Y-98341915D01*
X147496192Y-98376226D01*
X147485570Y-98392121D01*
X147481840Y-98395851D01*
X147447192Y-98410203D01*
X147412544Y-98395851D01*
X147398192Y-98361203D01*
X147398192Y-98338396D01*
X147396722Y-98332912D01*
X147396721Y-98332907D01*
X147377715Y-98261976D01*
X147377714Y-98261972D01*
X147377713Y-98261970D01*
X147338151Y-98193448D01*
X146581744Y-97437041D01*
X146571122Y-97421144D01*
X146564229Y-97404503D01*
X146560500Y-97385753D01*
X146560500Y-96963356D01*
X146555933Y-96934523D01*
X146553383Y-96918422D01*
X146544719Y-96863718D01*
X146537156Y-96848875D01*
X146483532Y-96743630D01*
X146483527Y-96743623D01*
X146483519Y-96743614D01*
X146388228Y-96648323D01*
X146388219Y-96648315D01*
X146388210Y-96648309D01*
X146288654Y-96597584D01*
X146273641Y-96585750D01*
X146270214Y-96581738D01*
X146258623Y-96546072D01*
X146275645Y-96512657D01*
X146276189Y-96512192D01*
X146307957Y-96500500D01*
X150395728Y-96500500D01*
X150414474Y-96504227D01*
G37*
%TD.AperFunction*%
%TD*%
%TA.AperFunction,Conductor*%
%TO.N,ANT*%
G36*
X147821830Y-99352747D02*
G01*
X147824908Y-99358182D01*
X147846094Y-99442930D01*
X147844776Y-99451788D01*
X147843057Y-99454000D01*
X147756006Y-99541922D01*
X147747750Y-99545390D01*
X147739460Y-99542004D01*
X147739378Y-99541922D01*
X147652326Y-99454000D01*
X147648940Y-99445710D01*
X147649288Y-99442934D01*
X147670476Y-99358180D01*
X147675807Y-99350987D01*
X147681827Y-99349320D01*
X147813557Y-99349320D01*
X147821830Y-99352747D01*
G37*
%TD.AperFunction*%
%TD*%
M02*
