%TF.GenerationSoftware,KiCad,Pcbnew,10.0.5*%
%TF.CreationDate,2026-08-27T19:56:04+05:30*%
%TF.ProjectId,OpenDongle-CH592,4f70656e-446f-46e6-976c-652d43483539,rev?*%
%TF.SameCoordinates,Original*%
%TF.FileFunction,Drillmap*%
%TF.FilePolarity,Positive*%
%FSLAX45Y45*%
G04 Gerber Fmt 4.5, Leading zero omitted, Abs format (unit mm)*
G04 Created by KiCad (PCBNEW 10.0.5) date 2026-08-27 19:56:04*
%MOMM*%
%LPD*%
G01*
G04 APERTURE LIST*
%ADD10C,0.254000*%
%ADD11C,0.200000*%
G04 APERTURE END LIST*
D10*
X13735000Y-9630000D02*
X15370000Y-9630000D01*
X13735000Y-10620000D02*
X13735000Y-9630000D01*
X15370000Y-9630000D02*
X15370000Y-10620000D01*
X15370000Y-10620000D02*
X13735000Y-10620000D01*
D11*
X13983077Y-10944184D02*
X13983077Y-10744184D01*
X13983077Y-10744184D02*
X14030696Y-10744184D01*
X14030696Y-10744184D02*
X14059267Y-10753708D01*
X14059267Y-10753708D02*
X14078315Y-10772755D01*
X14078315Y-10772755D02*
X14087839Y-10791803D01*
X14087839Y-10791803D02*
X14097362Y-10829898D01*
X14097362Y-10829898D02*
X14097362Y-10858470D01*
X14097362Y-10858470D02*
X14087839Y-10896565D01*
X14087839Y-10896565D02*
X14078315Y-10915612D01*
X14078315Y-10915612D02*
X14059267Y-10934660D01*
X14059267Y-10934660D02*
X14030696Y-10944184D01*
X14030696Y-10944184D02*
X13983077Y-10944184D01*
X14183077Y-10944184D02*
X14183077Y-10810850D01*
X14183077Y-10848946D02*
X14192601Y-10829898D01*
X14192601Y-10829898D02*
X14202124Y-10820374D01*
X14202124Y-10820374D02*
X14221172Y-10810850D01*
X14221172Y-10810850D02*
X14240220Y-10810850D01*
X14306886Y-10944184D02*
X14306886Y-10810850D01*
X14306886Y-10744184D02*
X14297362Y-10753708D01*
X14297362Y-10753708D02*
X14306886Y-10763231D01*
X14306886Y-10763231D02*
X14316410Y-10753708D01*
X14316410Y-10753708D02*
X14306886Y-10744184D01*
X14306886Y-10744184D02*
X14306886Y-10763231D01*
X14430696Y-10944184D02*
X14411648Y-10934660D01*
X14411648Y-10934660D02*
X14402124Y-10915612D01*
X14402124Y-10915612D02*
X14402124Y-10744184D01*
X14535458Y-10944184D02*
X14516410Y-10934660D01*
X14516410Y-10934660D02*
X14506886Y-10915612D01*
X14506886Y-10915612D02*
X14506886Y-10744184D01*
X14764029Y-10944184D02*
X14764029Y-10744184D01*
X14764029Y-10744184D02*
X14830696Y-10887041D01*
X14830696Y-10887041D02*
X14897362Y-10744184D01*
X14897362Y-10744184D02*
X14897362Y-10944184D01*
X15078315Y-10944184D02*
X15078315Y-10839422D01*
X15078315Y-10839422D02*
X15068791Y-10820374D01*
X15068791Y-10820374D02*
X15049743Y-10810850D01*
X15049743Y-10810850D02*
X15011648Y-10810850D01*
X15011648Y-10810850D02*
X14992601Y-10820374D01*
X15078315Y-10934660D02*
X15059267Y-10944184D01*
X15059267Y-10944184D02*
X15011648Y-10944184D01*
X15011648Y-10944184D02*
X14992601Y-10934660D01*
X14992601Y-10934660D02*
X14983077Y-10915612D01*
X14983077Y-10915612D02*
X14983077Y-10896565D01*
X14983077Y-10896565D02*
X14992601Y-10877517D01*
X14992601Y-10877517D02*
X15011648Y-10867993D01*
X15011648Y-10867993D02*
X15059267Y-10867993D01*
X15059267Y-10867993D02*
X15078315Y-10858470D01*
X15173553Y-10810850D02*
X15173553Y-11010850D01*
X15173553Y-10820374D02*
X15192601Y-10810850D01*
X15192601Y-10810850D02*
X15230696Y-10810850D01*
X15230696Y-10810850D02*
X15249743Y-10820374D01*
X15249743Y-10820374D02*
X15259267Y-10829898D01*
X15259267Y-10829898D02*
X15268791Y-10848946D01*
X15268791Y-10848946D02*
X15268791Y-10906089D01*
X15268791Y-10906089D02*
X15259267Y-10925136D01*
X15259267Y-10925136D02*
X15249743Y-10934660D01*
X15249743Y-10934660D02*
X15230696Y-10944184D01*
X15230696Y-10944184D02*
X15192601Y-10944184D01*
X15192601Y-10944184D02*
X15173553Y-10934660D01*
X15354505Y-10925136D02*
X15364029Y-10934660D01*
X15364029Y-10934660D02*
X15354505Y-10944184D01*
X15354505Y-10944184D02*
X15344982Y-10934660D01*
X15344982Y-10934660D02*
X15354505Y-10925136D01*
X15354505Y-10925136D02*
X15354505Y-10944184D01*
X15354505Y-10820374D02*
X15364029Y-10829898D01*
X15364029Y-10829898D02*
X15354505Y-10839422D01*
X15354505Y-10839422D02*
X15344982Y-10829898D01*
X15344982Y-10829898D02*
X15354505Y-10820374D01*
X15354505Y-10820374D02*
X15354505Y-10839422D01*
M02*
