%TF.GenerationSoftware,KiCad,Pcbnew,10.0.5*%
%TF.CreationDate,2026-08-27T19:56:04+05:30*%
%TF.ProjectId,OpenDongle-CH592,4f70656e-446f-46e6-976c-652d43483539,rev?*%
%TF.SameCoordinates,Original*%
%TF.FileFunction,Copper,L2,Bot*%
%TF.FilePolarity,Positive*%
%FSLAX46Y46*%
G04 Gerber Fmt 4.6, Leading zero omitted, Abs format (unit mm)*
G04 Created by KiCad (PCBNEW 10.0.5) date 2026-08-27 19:56:04*
%MOMM*%
%LPD*%
G01*
G04 APERTURE LIST*
%TA.AperFunction,ConnectorPad*%
%ADD10R,8.000000X1.900000*%
%TD*%
%TA.AperFunction,ConnectorPad*%
%ADD11R,7.500000X2.000000*%
%TD*%
%TA.AperFunction,ViaPad*%
%ADD12C,0.500000*%
%TD*%
%TA.AperFunction,ViaPad*%
%ADD13C,0.600000*%
%TD*%
%TA.AperFunction,Conductor*%
%ADD14C,0.200000*%
%TD*%
G04 APERTURE END LIST*
D10*
%TO.P,J1,1,VBUS_1*%
%TO.N,VCC*%
X141674766Y-97452817D03*
D11*
%TO.P,J1,2,D-_2*%
%TO.N,D-*%
X141924766Y-99962817D03*
%TO.P,J1,3,D+_3*%
%TO.N,D+*%
X141924766Y-102562817D03*
D10*
%TO.P,J1,4,GND_4*%
%TO.N,GND*%
X141674766Y-105072817D03*
%TD*%
D12*
%TO.N,GND*%
X145297120Y-104339194D03*
X150204042Y-104221484D03*
X150206923Y-98224871D03*
X150206923Y-100474871D03*
X150204042Y-104971484D03*
X145297120Y-105039194D03*
X144889497Y-104667709D03*
X150204042Y-105721484D03*
X150206923Y-98974871D03*
X150208802Y-96900000D03*
X150199803Y-99716612D03*
X145297120Y-105739194D03*
X144889497Y-105417709D03*
D13*
X146297692Y-100349320D03*
D12*
X150206923Y-101974871D03*
X150206923Y-101224871D03*
X150204042Y-102721484D03*
X150196922Y-103463225D03*
%TO.N,D+*%
X147250827Y-102171349D03*
%TO.N,D-*%
X147773823Y-101416718D03*
D13*
%TO.N,VCC*%
X141990465Y-97249375D03*
%TD*%
%TO.N,D+*%
D14*
X146839359Y-102562817D02*
X147230827Y-102171349D01*
X141924766Y-102562817D02*
X146839359Y-102562817D01*
%TO.N,D-*%
X147753823Y-101416718D02*
X147599922Y-101262817D01*
X143224766Y-101262817D02*
X141924766Y-99962817D01*
X147599922Y-101262817D02*
X143224766Y-101262817D01*
%TD*%
%TA.AperFunction,Conductor*%
%TO.N,GND*%
G36*
X150440123Y-96514852D02*
G01*
X150454474Y-96549499D01*
X150454414Y-102912317D01*
X150454387Y-105757700D01*
X150454400Y-105950497D01*
X150440051Y-105985146D01*
X150405403Y-105999500D01*
X137599500Y-105999500D01*
X137564852Y-105985148D01*
X137550500Y-105950500D01*
X137550500Y-98943069D01*
X137974266Y-98943069D01*
X137974266Y-100982565D01*
X137985899Y-101041048D01*
X137996043Y-101056229D01*
X138030213Y-101107369D01*
X138056778Y-101125118D01*
X138096535Y-101151684D01*
X138155018Y-101163317D01*
X142679999Y-101163317D01*
X142714647Y-101177669D01*
X142815647Y-101278669D01*
X142829999Y-101313317D01*
X142815647Y-101347965D01*
X142780999Y-101362317D01*
X138155018Y-101362317D01*
X138096535Y-101373950D01*
X138030213Y-101418264D01*
X137985899Y-101484586D01*
X137974266Y-101543069D01*
X137974266Y-103582565D01*
X137985899Y-103641048D01*
X138003648Y-103667612D01*
X138030213Y-103707369D01*
X138056778Y-103725118D01*
X138096535Y-103751684D01*
X138155018Y-103763317D01*
X138155021Y-103763317D01*
X145694511Y-103763317D01*
X145694514Y-103763317D01*
X145752997Y-103751684D01*
X145819318Y-103707369D01*
X145863633Y-103641048D01*
X145875266Y-103582565D01*
X145875266Y-102912317D01*
X145889618Y-102877669D01*
X145924266Y-102863317D01*
X146878923Y-102863317D01*
X146905589Y-102856171D01*
X146955348Y-102842838D01*
X147023870Y-102803277D01*
X147079819Y-102747328D01*
X147190946Y-102636201D01*
X147225594Y-102621849D01*
X147310138Y-102621849D01*
X147367424Y-102606498D01*
X147424713Y-102591148D01*
X147527440Y-102531838D01*
X147611316Y-102447962D01*
X147670626Y-102345235D01*
X147696690Y-102247965D01*
X147701327Y-102230660D01*
X147701327Y-102112037D01*
X147670626Y-101997464D01*
X147670626Y-101997463D01*
X147632781Y-101931915D01*
X147627886Y-101894736D01*
X147650716Y-101864982D01*
X147687897Y-101860086D01*
X147687898Y-101860086D01*
X147687900Y-101860087D01*
X147714512Y-101867218D01*
X147714514Y-101867218D01*
X147833134Y-101867218D01*
X147890420Y-101851867D01*
X147947709Y-101836517D01*
X148050436Y-101777207D01*
X148134312Y-101693331D01*
X148193622Y-101590604D01*
X148222030Y-101484586D01*
X148224323Y-101476029D01*
X148224323Y-101357406D01*
X148193622Y-101242833D01*
X148193621Y-101242830D01*
X148156000Y-101177669D01*
X148134312Y-101140105D01*
X148050436Y-101056229D01*
X148024140Y-101041047D01*
X147947710Y-100996919D01*
X147947707Y-100996918D01*
X147833135Y-100966218D01*
X147833132Y-100966218D01*
X147714514Y-100966218D01*
X147714512Y-100966218D01*
X147696955Y-100970921D01*
X147671594Y-100970920D01*
X147639487Y-100962317D01*
X147639484Y-100962317D01*
X145924266Y-100962317D01*
X145889618Y-100947965D01*
X145875266Y-100913317D01*
X145875266Y-98943072D01*
X145875266Y-98943069D01*
X145863633Y-98884586D01*
X145837067Y-98844829D01*
X145819318Y-98818264D01*
X145779561Y-98791699D01*
X145752997Y-98773950D01*
X145694514Y-98762317D01*
X138155018Y-98762317D01*
X138096535Y-98773950D01*
X138030213Y-98818264D01*
X137985899Y-98884586D01*
X137974266Y-98943069D01*
X137550500Y-98943069D01*
X137550500Y-98642233D01*
X137564852Y-98607585D01*
X137599500Y-98593233D01*
X137609056Y-98594174D01*
X137655018Y-98603317D01*
X137655019Y-98603317D01*
X145694511Y-98603317D01*
X145694514Y-98603317D01*
X145752997Y-98591684D01*
X145819318Y-98547369D01*
X145863633Y-98481048D01*
X145875266Y-98422565D01*
X145875266Y-96549499D01*
X145889618Y-96514852D01*
X145924266Y-96500500D01*
X150405475Y-96500500D01*
X150440123Y-96514852D01*
G37*
%TD.AperFunction*%
%TD*%
M02*
